{
  "accessors": [
    {
      "bufferView": 3,
      "componentType": 5126,
      "count": 10201,
      "max": [
        1.0279898643493652,
        1.6896955966949463,
        0.2743809223175049
      ],
      "min": [
        -0.6467670798301697,
        -0.016822535544633865,
        -0.29728177189826965
      ],
      "type": "VEC3"
    },
    {
      "bufferView": 3,
      "byteOffset": 122412,
      "componentType": 5126,
      "count": 10201,
      "max": [
        1.0,
        1.0,
        1.0
      ],
      "min": [
        -1.0,
        -1.0,
        -1.0
      ],
      "type": "VEC3"
    },
    {
      "bufferView": 2,
      "componentType": 5126,
      "count": 10201,
      "max": [
        0.9968479871749878,
        0.9963269829750061
      ],
      "min": [
        0.003955000080168247,
        0.008069000206887722
      ],
      "type": "VEC2"
    },
    {
      "bufferView": 1,
      "componentType": 5125,
      "count": 44157,
      "type": "SCALAR"
    },
    {
      "bufferView": 5,
      "componentType": 5126,
      "count": 193,
      "max": [
        100.0,
        0.9999895095825195,
        1.0,
        0.0,
        0.9998458027839661,
        100.0,
        0.9997044801712036,
        0.0,
        1.000001072883606,
        0.9990562200546265,
        100.0,
        0.0,
        1.386794924736023,
        1.3971014022827148,
        1.4513025283813477,
        1.0
      ],
      "min": [
        -0.9999998211860657,
        -0.9999891519546509,
        -1.0,
        0.0,
        -0.9999600052833557,
        -0.9999998211860657,
        -0.9997047185897827,
        0.0,
        -0.9999991059303284,
        -1.0000003576278687,
        -0.9999991059303284,
        0.0,
        -1.6140778064727783,
        -1.4493136405944824,
        -1.185964584350586,
        1.0
      ],
      "type": "MAT4"
    },
    {
      "bufferView": 0,
      "componentType": 5123,
      "count": 10201,
      "type": "VEC4"
    },
    {
      "bufferView": 4,
      "componentType": 5126,
      "count": 10201,
      "max": [
        1.0,
        0.5,
        0.32804909348487854,
        0.22123274207115173
      ],
      "min": [
        0.28599685430526733,
        0.0,
        0.0,
        0.0
      ],
      "type": "VEC4"
    }
  ],
  "asset": {
    "extras": {
      "author": "smg4 (https://sketchfab.com/oscar3dmodel)",
      "license": "CC-BY-4.0 (http://creativecommons.org/licenses/by/4.0/)",
      "source": "https://sketchfab.com/3d-models/meguminre-zero-infinity-6d51e53e482140e8b88dd7a75cd38971",
      "title": "Megumin,Re: Zero INFINITY"
    },
    "generator": "Sketchfab-16.8.0",
    "version": "2.0"
  },
  "bufferViews": [
    {
      "buffer": 0,
      "byteLength": 81608,
      "byteStride": 8,
      "name": "shortBufferViews",
      "target": 34962
    },
    {
      "buffer": 0,
      "byteLength": 176628,
      "byteOffset": 81608,
      "name": "floatBufferViews",
      "target": 34963
    },
    {
      "buffer": 0,
      "byteLength": 81608,
      "byteOffset": 258236,
      "byteStride": 8,
      "name": "floatBufferViews",
      "target": 34962
    },
    {
      "buffer": 0,
      "byteLength": 244824,
      "byteOffset": 339844,
      "byteStride": 12,
      "name": "floatBufferViews",
      "target": 34962
    },
    {
      "buffer": 0,
      "byteLength": 163216,
      "byteOffset": 584668,
      "byteStride": 16,
      "name": "floatBufferViews",
      "target": 34962
    },
    {
      "buffer": 0,
      "byteLength": 12352,
      "byteOffset": 747884,
      "name": "floatBufferViews"
    }
  ],
  "buffers": [
    {
      "byteLength": 760236,
      "uri": "scene.bin"
    }
  ],
  "images": [
    {
      "uri": "textures/megumin_baseColor.png"
    },
    {
      "uri": "textures/megumin_emissive.png"
    }
  ],
  "materials": [
    {
      "doubleSided": true,
      "emissiveFactor": [
        0.10666699174702246,
        0.10666699174702246,
        0.10666699174702246
      ],
      "emissiveTexture": {
        "index": 1
      },
      "name": "megumin",
      "pbrMetallicRoughness": {
        "baseColorTexture": {
          "index": 0
        },
        "metallicFactor": 0.0,
        "roughnessFactor": 0.7885257473118872
      }
    }
  ],
  "meshes": [
    {
      "name": "megumin_megumin_0",
      "primitives": [
        {
          "attributes": {
            "JOINTS_0": 5,
            "NORMAL": 1,
            "POSITION": 0,
            "TEXCOORD_0": 2,
            "WEIGHTS_0": 6
          },
          "indices": 3,
          "material": 0,
          "mode": 4
        }
      ]
    }
  ],
  "nodes": [
    {
      "children": [
        1
      ],
      "matrix": [
        1.0,
        0.0,
        0.0,
        0.0,
        0.0,
        2.220446049250313e-16,
        -1.0,
        0.0,
        0.0,
        1.0,
        2.220446049250313e-16,
        0.0,
        0.0,
        0.0,
        0.0,
        1.0
      ],
      "name": "Sketchfab_model"
    },
    {
      "children": [
        2
      ],
      "matrix": [
        0.009999999776482582,
        0.0,
        0.0,
        0.0,
        0.0,
        0.0,
        0.009999999776482582,
        0.0,
        0.0,
        -0.009999999776482582,
        0.0,
        0.0,
        0.0,
        0.0,
        0.0,
        1.0
      ],
      "name": "Megumin.fbx"
    },
    {
      "children": [
        3
      ],
      "name": "RootNode"
    },
    {
      "children": [
        4
      ],
      "matrix": [
        100.0,
        0.0,
        0.0,
        0.0,
        0.0,
        -1.629206793918314e-05,
        -99.99999999999868,
        0.0,
        0.0,
        99.99999999999868,
        -1.629206793918314e-05,
        0.0,
        0.0,
        0.0,
        0.0,
        1.0
      ],
      "name": "root"
    },
    {
      "children": [
        5,
        199,
        198
      ],
      "name": "Object_4"
    },
    {
      "children": [
        6
      ],
      "name": "_rootJoint"
    },
    {
      "children": [
        7
      ],
      "name": "Root_02",
      "rotation": [
        0.7071068286895752,
        0.0,
        0.0,
        0.7071067094802856
      ]
    },
    {
      "children": [
        8,
        196
      ],
      "name": "Bip001_03",
      "rotation": [
        5.338507946817117e-08,
        0.7071068286895752,
        0.7071067094802856,
        5.338507236274381e-08
      ],
      "translation": [
        0.0,
        0.8510519862174988,
        0.030766736716032028
      ]
    },
    {
      "children": [
        9
      ],
      "name": "Bip001 Pelvis_04",
      "rotation": [
        0.48778218030929565,
        0.5119267702102661,
        0.4877835214138031,
        0.5119245648384094
      ],
      "scale": [
        1.0,
        1.0000001192092896,
        1.0000001192092896
      ],
      "translation": [
        -3.0837206566047826e-08,
        -0.010321088135242462,
        -0.0052928924560546875
      ]
    },
    {
      "children": [
        10,
        14,
        18,
        167,
        172,
        175,
        178,
        181,
        184,
        187,
        190,
        193
      ],
      "name": "Bip001 Spine_05",
      "rotation": [
        -0.000593843637034297,
        -0.0006249779253266752,
        0.1703042834997177,
        0.9853911399841309
      ],
      "translation": [
        -1.8626711284497333e-09,
        0.06498083472251892,
        4.529709940470639e-14
      ]
    },
    {
      "children": [
        11
      ],
      "name": "Bip001 L Thigh_06",
      "rotation": [
        0.9880254864692688,
        -0.15428835153579712,
        -0.0006142944330349565,
        -0.0006033533136360347
      ],
      "scale": [
        0.999998927116394,
        0.9999998211860657,
        0.9999999403953552
      ],
      "translation": [
        -0.0218642670661211,
        -0.061138227581977844,
        -0.05310368165373802
      ]
    },
    {
      "children": [
        12
      ],
      "name": "Bip001 L Calf_07",
      "rotation": [
        3.960792138713032e-09,
        -1.9168782117162664e-08,
        0.025580618530511856,
        0.9996727705001831
      ],
      "translation": [
        4.299494094084366e-10,
        0.36924275755882263,
        -3.123561853612955e-09
      ]
    },
    {
      "children": [
        13
      ],
      "name": "Bip001 L Foot_08",
      "rotation": [
        7.152164585022547e-07,
        1.509746084593644e-06,
        -0.4188898801803589,
        0.9080370664596558
      ],
      "scale": [
        1.0,
        1.0000001192092896,
        1.0
      ],
      "translation": [
        -7.071747631925973e-10,
        0.39170682430267334,
        8.501888082435016e-10
      ]
    },
    {
      "name": "Bip001 L Toe0_09",
      "rotation": [
        0.9215567111968994,
        0.38824379444122314,
        9.1531421730906e-07,
        8.605183552390372e-07
      ],
      "scale": [
        0.9999998211860657,
        0.9999998807907104,
        1.0
      ],
      "translation": [
        5.051049356552539e-09,
        0.11549641937017441,
        -1.5192673785691113e-09
      ]
    },
    {
      "children": [
        15
      ],
      "name": "Bip001 R Thigh_010",
      "rotation": [
        0.9880255460739136,
        -0.15428860485553741,
        -0.0006144044455140829,
        -0.0006033707177266479
      ],
      "scale": [
        1.0000020265579224,
        1.000000238418579,
        0.9999999403953552
      ],
      "translation": [
        -0.021755170077085495,
        -0.06128470227122307,
        0.05297931283712387
      ]
    },
    {
      "children": [
        16
      ],
      "name": "Bip001 R Calf_011",
      "rotation": [
        -1.2716706798698851e-08,
        8.697156061998612e-08,
        0.025580517947673798,
        0.9996727705001831
      ],
      "scale": [
        1.0000001192092896,
        1.0000001192092896,
        1.0
      ],
      "translation": [
        4.439186795934802e-10,
        0.36924293637275696,
        6.771557536922046e-09
      ]
    },
    {
      "children": [
        17
      ],
      "name": "Bip001 R Foot_012",
      "rotation": [
        5.150858441993478e-07,
        1.325381845163065e-06,
        -0.4188896119594574,
        0.9080371856689453
      ],
      "scale": [
        0.9999998807907104,
        0.9999998807907104,
        1.0
      ],
      "translation": [
        -2.104158625115815e-09,
        0.3917066752910614,
        -2.5228721334258353e-09
      ]
    },
    {
      "name": "Bip001 R Toe0_013",
      "rotation": [
        0.921556830406189,
        0.38824349641799927,
        6.714269034091558e-07,
        7.045531447147368e-07
      ],
      "scale": [
        0.9999998211860657,
        0.9999998211860657,
        1.0
      ],
      "translation": [
        -4.786421925473405e-09,
        0.11549611389636993,
        -1.1913989794720692e-09
      ]
    },
    {
      "children": [
        19
      ],
      "name": "Bip001 Spine1_014",
      "rotation": [
        0.0006124636856839061,
        0.0006036566337570548,
        -0.13915735483169556,
        0.9902700185775757
      ],
      "scale": [
        0.9999998807907104,
        1.0,
        0.9999999403953552
      ],
      "translation": [
        0.0347297266125679,
        0.08171828091144562,
        7.725413888692856e-05
      ]
    },
    {
      "children": [
        20,
        149
      ],
      "name": "Bip001 Spine2_015",
      "rotation": [
        -1.9333748824124086e-08,
        -2.1076300527056446e-07,
        0.05623834207653999,
        0.9984173774719238
      ],
      "translation": [
        1.862648701944636e-09,
        0.08879756182432175,
        4.218847493575595e-15
      ]
    },
    {
      "children": [
        21,
        95,
        122
      ],
      "name": "Bip001 Neck_016",
      "rotation": [
        2.4465572323606466e-07,
        1.419741693098331e-07,
        0.09613029658794403,
        0.9953687787055969
      ],
      "scale": [
        1.0,
        1.0000001192092896,
        1.0
      ],
      "translation": [
        -0.01325066015124321,
        0.1474984586238861,
        5.5564679968256314e-08
      ]
    },
    {
      "children": [
        22,
        26,
        30,
        33,
        36,
        39,
        43,
        65,
        66,
        67,
        68,
        70,
        71,
        72,
        77,
        82,
        83,
        84,
        85,
        86,
        87,
        90,
        93,
        94
      ],
      "name": "Bip001 Head_017",
      "rotation": [
        0.002074614865705371,
        0.0014988579787313938,
        -0.5618955492973328,
        0.8272042274475098
      ],
      "scale": [
        1.0,
        1.0000001192092896,
        1.0
      ],
      "translation": [
        -3.539028980981129e-08,
        0.06033777818083763,
        -1.9539925233402755e-14
      ]
    },
    {
      "children": [
        23
      ],
      "name": "Bone001_018",
      "rotation": [
        -0.6086026430130005,
        -0.3671378791332245,
        0.6250054240226746,
        -0.3227705657482147
      ],
      "scale": [
        1.0,
        1.0,
        0.9999998807907104
      ],
      "translation": [
        -0.0454280748963356,
        0.09401050955057144,
        0.07861790806055069
      ]
    },
    {
      "children": [
        24
      ],
      "name": "Bone002_019",
      "rotation": [
        -0.13994669914245605,
        -0.009088786318898201,
        -0.02573840692639351,
        0.9897827506065369
      ],
      "scale": [
        0.9999998807907104,
        1.0000001192092896,
        1.0
      ],
      "translation": [
        -4.489265847951174e-09,
        0.07920166850090027,
        -1.1583324521780014e-08
      ]
    },
    {
      "children": [
        25
      ],
      "name": "Bone003_020",
      "rotation": [
        0.0019558495841920376,
        -0.0003694734477903694,
        0.0937778502702713,
        0.9955911636352539
      ],
      "scale": [
        1.0,
        0.9999999403953552,
        1.0
      ],
      "translation": [
        -1.280568540096283e-08,
        0.0678752213716507,
        -4.1443854570388794e-08
      ]
    },
    {
      "name": "Bone004_021",
      "rotation": [
        0.07340952008962631,
        -0.027173295617103577,
        -0.33425018191337585,
        0.9392282366752625
      ],
      "scale": [
        0.9999999403953552,
        0.9999999403953552,
        0.9999999403953552
      ],
      "translation": [
        1.210719347000122e-08,
        0.07181660085916519,
        -4.691537469625473e-08
      ]
    },
    {
      "children": [
        27
      ],
      "name": "Bone001(mirrored)_022",
      "rotation": [
        0.6272841691970825,
        0.31993404030799866,
        -0.6061535477638245,
        0.36977672576904297
      ],
      "scale": [
        1.0000003576278687,
        1.0000003576278687,
        1.0000001192092896
      ],
      "translation": [
        -0.04466814547777176,
        0.09373416006565094,
        -0.07937996089458466
      ]
    },
    {
      "children": [
        28
      ],
      "name": "Bone002(mirrored)_023",
      "rotation": [
        -0.13994938135147095,
        0.009088846854865551,
        0.025738196447491646,
        0.9897823333740234
      ],
      "scale": [
        0.9999999403953552,
        0.9999998807907104,
        0.9999999403953552
      ],
      "translation": [
        7.967173587530851e-10,
        0.07920151948928833,
        4.249159246683121e-09
      ]
    },
    {
      "children": [
        29
      ],
      "name": "Bone003(mirrored)_024",
      "rotation": [
        0.001955342711880803,
        0.0003683513787109405,
        -0.09377694875001907,
        0.9955913424491882
      ],
      "scale": [
        1.0,
        0.9999998807907104,
        0.9999998807907104
      ],
      "translation": [
        -1.0011717677116394e-08,
        0.06787528842687607,
        -3.573950380086899e-08
      ]
    },
    {
      "name": "Bone004(mirrored)_025",
      "rotation": [
        0.07341089099645615,
        0.02717328630387783,
        0.33424973487854004,
        0.9392281770706177
      ],
      "scale": [
        1.0,
        0.9999999403953552,
        1.0
      ],
      "translation": [
        8.381903171539307e-09,
        0.07181598991155624,
        2.9336661100387573e-08
      ]
    },
    {
      "children": [
        31
      ],
      "name": "Bone006_026",
      "rotation": [
        -0.6228528618812561,
        -0.3365194797515869,
        0.651892364025116,
        -0.27174490690231323
      ],
      "scale": [
        0.9999997615814209,
        1.0,
        1.0000001192092896
      ],
      "translation": [
        -0.03931347653269768,
        0.11931779235601425,
        0.09370522946119308
      ]
    },
    {
      "children": [
        32
      ],
      "name": "Bone007_027",
      "rotation": [
        -0.079508937895298,
        0.013282597996294498,
        -0.13216368854045868,
        0.9879446625709534
      ],
      "scale": [
        0.9999999403953552,
        1.0,
        1.0
      ],
      "translation": [
        3.965396899729967e-09,
        0.054020956158638,
        -4.16184775531292e-09
      ]
    },
    {
      "name": "Bone008_028",
      "rotation": [
        -0.13442526757717133,
        0.01631101220846176,
        -0.11935442686080933,
        0.9835742712020874
      ],
      "scale": [
        1.0,
        0.9999999403953552,
        0.9999999403953552
      ],
      "translation": [
        -4.753928806167096e-09,
        0.05100831389427185,
        3.725290298461914e-09
      ]
    },
    {
      "children": [
        34
      ],
      "name": "Bone006(mirrored)_029",
      "rotation": [
        0.6542928218841553,
        0.2690330743789673,
        -0.620184063911438,
        0.3389599919319153
      ],
      "scale": [
        0.9999997019767761,
        0.9999998807907104,
        0.9999998211860657
      ],
      "translation": [
        -0.038408730179071426,
        0.11898885667324066,
        -0.09439415484666824
      ]
    },
    {
      "children": [
        35
      ],
      "name": "Bone007(mirrored)_030",
      "rotation": [
        -0.0795132964849472,
        -0.013286563567817211,
        0.13216710090637207,
        0.9879438281059265
      ],
      "scale": [
        1.0,
        0.9999999403953552,
        1.0000001192092896
      ],
      "translation": [
        -1.7102138372138143e-08,
        0.054021287709474564,
        2.5538611225783825e-09
      ]
    },
    {
      "name": "Bone008(mirrored)_031",
      "rotation": [
        -0.1344216763973236,
        -0.016309097409248352,
        0.11935275048017502,
        0.9835749864578247
      ],
      "scale": [
        1.0,
        0.9999999403953552,
        0.9999999403953552
      ],
      "translation": [
        -8.782080840319395e-09,
        0.051007479429244995,
        2.6542693376541138e-08
      ]
    },
    {
      "children": [
        37
      ],
      "name": "Bone010_032",
      "rotation": [
        0.5748099684715271,
        0.4049231708049774,
        -0.5735868215560913,
        0.4202726185321808
      ],
      "scale": [
        0.9999999403953552,
        0.9999998807907104,
        1.0
      ],
      "translation": [
        -0.06259682774543762,
        0.19806386530399323,
        0.0049829743802547455
      ]
    },
    {
      "children": [
        38
      ],
      "name": "Bone011_033",
      "rotation": [
        0.13017015159130096,
        -0.005931707099080086,
        -0.08252647519111633,
        0.9880333542823792
      ],
      "scale": [
        1.0000001192092896,
        1.0000001192092896,
        1.0000001192092896
      ],
      "translation": [
        -1.1641532182693481e-10,
        0.03747175261378288,
        3.667810233309865e-08
      ]
    },
    {
      "name": "Bone012_034",
      "rotation": [
        0.1110069751739502,
        -0.023570043966174126,
        -0.14484794437885284,
        0.9829246997833252
      ],
      "translation": [
        1.3213139027357101e-08,
        0.03577294945716858,
        1.4089891919866204e-08
      ]
    },
    {
      "children": [
        40,
        41,
        42
      ],
      "name": "Bone088_035",
      "rotation": [
        0.5435456037521362,
        0.8393757343292236,
        0.0005712200072593987,
        0.0025001626927405596
      ],
      "scale": [
        1.0000001192092896,
        1.0000004768371582,
        0.9999999403953552
      ],
      "translation": [
        0.006110265385359526,
        0.05167808383703232,
        -6.126199150457978e-05
      ]
    },
    {
      "name": "Xiazuichun01_036",
      "rotation": [
        1.9195347533695895e-07,
        6.912102435308043e-06,
        -0.20286449790000916,
        0.9792068004608154
      ],
      "scale": [
        0.9999999403953552,
        0.9999999403953552,
        1.0
      ],
      "translation": [
        0.00018965452909469604,
        0.06101173162460327,
        1.3947953902970767e-09
      ]
    },
    {
      "name": "Xiazuichun02_037",
      "rotation": [
        1.8023428083324688e-07,
        6.857696462247986e-06,
        -0.20286449790000916,
        0.9792068004608154
      ],
      "scale": [
        0.9999999403953552,
        0.9999999403953552,
        1.0
      ],
      "translation": [
        -9.507199138170108e-05,
        0.06023130938410759,
        -0.006999967619776726
      ]
    },
    {
      "name": "Xiazuichun04_038",
      "rotation": [
        0.20286448299884796,
        0.9792068004608154,
        1.6344033326731733e-07,
        -5.6433113968523685e-06
      ],
      "scale": [
        1.0,
        0.9999998211860657,
        1.0
      ],
      "translation": [
        -9.487683564657345e-05,
        0.06023131683468819,
        0.006999966222792864
      ]
    },
    {
      "children": [
        44,
        46,
        48,
        50,
        52,
        54,
        56,
        58,
        60
      ],
      "name": "Dummy001_039",
      "rotation": [
        -0.24030674993991852,
        0.6751487851142883,
        0.24735574424266815,
        0.6521057486534119
      ],
      "scale": [
        0.9999998807907104,
        0.9999999403953552,
        0.9999999403953552
      ],
      "translation": [
        -0.10464902222156525,
        0.09937223792076111,
        -0.0006774226203560829
      ]
    },
    {
      "children": [
        45
      ],
      "name": "Bone038_040",
      "rotation": [
        0.5679268836975098,
        -0.3107230067253113,
        0.6306352019309998,
        0.4280298054218292
      ],
      "scale": [
        0.9999999403953552,
        1.0,
        1.0000001192092896
      ],
      "translation": [
        -0.13406984508037567,
        0.027467181906104088,
        -0.003328978084027767
      ]
    },
    {
      "name": "Bone039_041",
      "rotation": [
        7.099156391632278e-07,
        2.733656856435118e-07,
        3.965106145642494e-07,
        1.0
      ],
      "scale": [
        1.0,
        0.9999999403953552,
        1.0000001192092896
      ],
      "translation": [
        -1.6298145055770874e-09,
        0.08324559032917023,
        6.371947858241356e-09
      ]
    },
    {
      "children": [
        47
      ],
      "name": "Bone038(mirrored)_042",
      "rotation": [
        -0.5939958095550537,
        -0.2835628390312195,
        0.6240226030349731,
        -0.42113780975341797
      ],
      "scale": [
        0.9999999403953552,
        1.0,
        0.9999999403953552
      ],
      "translation": [
        0.13548195362091064,
        0.020712977275252342,
        0.004677396733313799
      ]
    },
    {
      "name": "Bone039(mirrored)_043",
      "rotation": [
        -1.4688442888655118e-06,
        1.8202193814431666e-06,
        -9.825453162193298e-08,
        1.0
      ],
      "translation": [
        -1.5133991837501526e-09,
        0.08324582129716873,
        -2.1810888650719562e-09
      ]
    },
    {
      "children": [
        49
      ],
      "name": "Bone041_044",
      "rotation": [
        0.30223992466926575,
        -0.3952082395553589,
        0.836837649345398,
        0.2283950001001358
      ],
      "scale": [
        0.9999999403953552,
        0.9999999403953552,
        1.0
      ],
      "translation": [
        -0.08279826492071152,
        0.005131754092872143,
        -0.09363396465778351
      ]
    },
    {
      "name": "Bone042_045",
      "rotation": [
        -2.6680024802772095e-06,
        -1.2258230981387896e-06,
        -0.02280827797949314,
        0.9997398853302002
      ],
      "scale": [
        1.0,
        1.0000001192092896,
        1.0000001192092896
      ],
      "translation": [
        -4.7031790018081665e-08,
        0.08736710250377655,
        -1.043081283569336e-07
      ]
    },
    {
      "children": [
        51
      ],
      "name": "Bone041(mirrored)_046",
      "rotation": [
        -0.3367463946342468,
        -0.3805685043334961,
        0.8329517841339111,
        -0.21900005638599396
      ],
      "scale": [
        1.000000238418579,
        1.0000001192092896,
        1.0
      ],
      "translation": [
        0.08871565014123917,
        0.0008337653707712889,
        -0.08853937685489655
      ]
    },
    {
      "name": "Bone042(mirrored)_047",
      "rotation": [
        2.638191745063523e-06,
        -1.5908801742625656e-06,
        0.022808073088526726,
        0.9997398853302002
      ],
      "scale": [
        0.9999999403953552,
        1.0,
        0.9999998807907104
      ],
      "translation": [
        -2.421438694000244e-08,
        0.08736706525087357,
        7.450580596923828e-09
      ]
    },
    {
      "children": [
        53
      ],
      "name": "Bone044_048",
      "rotation": [
        -0.018818514421582222,
        -0.4361155033111572,
        0.8996811509132385,
        0.004792673978954554
      ],
      "scale": [
        1.0000001192092896,
        0.9999999403953552,
        1.0
      ],
      "translation": [
        0.0038926745764911175,
        -0.00023387398687191308,
        -0.1312534362077713
      ]
    },
    {
      "name": "Bone045_049",
      "rotation": [
        -7.897621117081144e-07,
        -6.79218715049501e-07,
        -5.0247001581738e-07,
        1.0
      ],
      "scale": [
        1.0,
        1.0000001192092896,
        1.0000001192092896
      ],
      "translation": [
        2.842170943040401e-14,
        0.08249981701374054,
        -2.980350899406403e-08
      ]
    },
    {
      "children": [
        55
      ],
      "name": "Bone047_050",
      "rotation": [
        0.7289407849311829,
        -0.2311170995235443,
        0.32456347346305847,
        0.5566765666007996
      ],
      "scale": [
        0.9999999403953552,
        1.0,
        1.0
      ],
      "translation": [
        -0.09058287739753723,
        0.047495730221271515,
        0.08886497467756271
      ]
    },
    {
      "name": "Bone048_051",
      "rotation": [
        1.1177266401318775e-07,
        2.1050520615517598e-07,
        -0.015801794826984406,
        0.9998752474784851
      ],
      "scale": [
        1.0,
        1.0,
        1.0000001192092896
      ],
      "translation": [
        -7.450580596923828e-09,
        0.08798788487911224,
        -4.470348358154297e-08
      ]
    },
    {
      "children": [
        57
      ],
      "name": "Bone047(mirrored)_052",
      "rotation": [
        0.7438110709190369,
        0.19616881012916565,
        -0.3166220486164093,
        0.5549895167350769
      ],
      "scale": [
        1.0,
        1.0,
        1.0000001192092896
      ],
      "translation": [
        0.087349072098732,
        0.04303701967000961,
        0.09415006637573242
      ]
    },
    {
      "name": "Bone048(mirrored)_053",
      "rotation": [
        -1.393432853546983e-06,
        3.1240469979820773e-06,
        0.015801478177309036,
        0.9998752474784851
      ],
      "scale": [
        0.9999999403953552,
        0.9999998807907104,
        0.9999998807907104
      ],
      "translation": [
        3.725290298461914e-08,
        0.08798776566982269,
        7.82310962677002e-08
      ]
    },
    {
      "children": [
        59
      ],
      "name": "Bone050_054",
      "rotation": [
        0.7389528751373291,
        -0.019252123311161995,
        0.0025364821776747704,
        0.6734772324562073
      ],
      "scale": [
        1.0000001192092896,
        0.9999998807907104,
        0.9999998807907104
      ],
      "translation": [
        -0.0024052720982581377,
        0.05742023512721062,
        0.12941749393939972
      ]
    },
    {
      "name": "Bone051_055",
      "rotation": [
        -7.972132607392268e-07,
        -8.36283447824826e-07,
        3.774122347977027e-09,
        1.0
      ],
      "translation": [
        0.0,
        0.07895739376544952,
        -8.940801876633486e-08
      ]
    },
    {
      "children": [
        61
      ],
      "name": "Bone053_056",
      "rotation": [
        0.057047829031944275,
        0.9909824132919312,
        -0.12027749419212341,
        0.015262207947671413
      ],
      "scale": [
        1.0,
        0.9999998211860657,
        1.0
      ],
      "translation": [
        -0.0055831000208854675,
        0.025507595390081406,
        -0.00035414742887951434
      ]
    },
    {
      "children": [
        62
      ],
      "name": "Bone054_057",
      "rotation": [
        0.19735491275787354,
        0.3603705167770386,
        0.4894973635673523,
        0.7691400647163391
      ],
      "scale": [
        1.0000001192092896,
        1.0000001192092896,
        1.0
      ],
      "translation": [
        1.0900500058141915e-08,
        0.12389778345823288,
        -5.866240826435387e-09
      ]
    },
    {
      "children": [
        63
      ],
      "name": "Bone055_058",
      "rotation": [
        0.06512963026762009,
        0.025385508313775063,
        0.22739052772521973,
        0.9712916612625122
      ],
      "scale": [
        0.9999999403953552,
        1.0,
        1.0
      ],
      "translation": [
        -1.210719347000122e-08,
        0.10579252988100052,
        1.4901161193847656e-08
      ]
    },
    {
      "children": [
        64
      ],
      "name": "Bone057_059",
      "rotation": [
        -0.03997219726443291,
        0.0006952167022973299,
        0.256996214389801,
        0.9655851721763611
      ],
      "scale": [
        1.0,
        1.0,
        0.9999999403953552
      ],
      "translation": [
        -2.0489096641540527e-08,
        0.10327325761318207,
        0.0
      ]
    },
    {
      "name": "Bone090_060",
      "rotation": [
        -0.04910117760300636,
        -0.014848394319415092,
        0.2352970391511917,
        0.9705689549446106
      ],
      "scale": [
        1.0,
        1.0000001192092896,
        0.9999998807907104
      ],
      "translation": [
        8.940696716308594e-08,
        0.10845164209604263,
        -1.4901161193847656e-08
      ]
    },
    {
      "name": "Eye_L_00",
      "rotation": [
        0.3272145390510559,
        0.9282258152961731,
        0.15824489295482635,
        0.0792844146490097
      ],
      "scale": [
        1.0,
        1.0000003576278687,
        1.0000001192092896
      ],
      "translation": [
        -0.00041377998422831297,
        0.09436334669589996,
        0.033703118562698364
      ]
    },
    {
      "name": "Eye_R_01",
      "rotation": [
        -0.15829233825206757,
        0.0742468386888504,
        -0.32811132073402405,
        0.9283177852630615
      ],
      "scale": [
        1.0000001192092896,
        1.0000001192092896,
        1.0
      ],
      "translation": [
        -8.751932182349265e-05,
        0.0942448154091835,
        -0.034165866672992706
      ]
    },
    {
      "name": "Meimao_L_01_061",
      "rotation": [
        0.7420555353164673,
        -0.3362208604812622,
        -0.16028189659118652,
        0.5573320388793945
      ],
      "scale": [
        1.0000001192092896,
        1.0000001192092896,
        1.0
      ],
      "translation": [
        -0.0005727169918827713,
        0.15638650953769684,
        0.01302448008209467
      ]
    },
    {
      "children": [
        69
      ],
      "name": "Meimao_R_01_062",
      "rotation": [
        -0.1139955222606659,
        -0.4290282428264618,
        0.7968672513961792,
        0.4098077416419983
      ],
      "translation": [
        -0.00044617996900342405,
        0.15634052455425262,
        -0.013275819830596447
      ]
    },
    {
      "name": "Meimao_R_02_063",
      "rotation": [
        0.014955142512917519,
        -0.4451369345188141,
        0.8940287828445435,
        -0.048394449055194855
      ],
      "scale": [
        1.0,
        0.9999994039535522,
        0.9999995827674866
      ],
      "translation": [
        1.3131648302078247e-07,
        0.023225167766213417,
        1.4901161193847656e-08
      ]
    },
    {
      "name": "Neiyanjiao_L_064",
      "rotation": [
        0.3619646728038788,
        0.9321883320808411,
        5.5569202231708914e-05,
        0.0025582988746464252
      ],
      "scale": [
        1.0000001192092896,
        1.0000001192092896,
        0.9999999403953552
      ],
      "translation": [
        0.01667729765176773,
        0.11292342841625214,
        0.021537328138947487
      ]
    },
    {
      "name": "Neiyanjiao_R_065",
      "rotation": [
        5.5123091442510486e-05,
        -0.0025587964337319136,
        -0.36196377873420715,
        0.9321887493133545
      ],
      "scale": [
        0.9999999403953552,
        0.9999998807907104,
        1.0
      ],
      "translation": [
        0.016886932775378227,
        0.11284728348255157,
        -0.022116588428616524
      ]
    },
    {
      "children": [
        73,
        74,
        75,
        76
      ],
      "name": "Shangyanpi_L_066",
      "rotation": [
        0.06773641705513,
        0.9667569398880005,
        0.2465391606092453,
        0.003359545487910509
      ],
      "translation": [
        -0.0006613645819015801,
        0.09498785436153412,
        0.0337345115840435
      ]
    },
    {
      "name": "Shangyanpi_L_01_067",
      "rotation": [
        0.22016344964504242,
        -0.0831507071852684,
        0.33379241824150085,
        0.9127960801124573
      ],
      "scale": [
        0.9999998211860657,
        0.9999998211860657,
        0.9999999403953552
      ],
      "translation": [
        -0.0034337863326072693,
        0.02464170940220356,
        0.014556925743818283
      ]
    },
    {
      "name": "Shangyanpi_L_02_068",
      "rotation": [
        0.22016343474388123,
        -0.08315075933933258,
        0.33379247784614563,
        0.9127960205078125
      ],
      "scale": [
        0.9999998211860657,
        0.9999998807907104,
        0.9999999403953552
      ],
      "translation": [
        0.0041826036758720875,
        0.029264749959111214,
        -0.010051080957055092
      ]
    },
    {
      "name": "Shangyanpi_R_004_069",
      "rotation": [
        0.22016319632530212,
        -0.08315093070268631,
        0.3337942659854889,
        0.9127954244613647
      ],
      "scale": [
        0.9999999403953552,
        0.9999997615814209,
        0.9999999403953552
      ],
      "translation": [
        -0.006545014679431915,
        0.020749203860759735,
        0.01778789795935154
      ]
    },
    {
      "name": "Waiyanjiao_R002_070",
      "rotation": [
        0.11219261586666107,
        -0.12397044152021408,
        0.27269577980041504,
        0.9474604725837708
      ],
      "scale": [
        0.9999998807907104,
        0.9999999403953552,
        0.9999998211860657
      ],
      "translation": [
        0.00579611212015152,
        0.023728694766759872,
        -0.02229374274611473
      ]
    },
    {
      "children": [
        78,
        79,
        80,
        81
      ],
      "name": "Shangyanpi_L(mirrored)_071",
      "rotation": [
        -0.24668928980827332,
        0.0006977932644076645,
        -0.06952928006649017,
        0.9665970206260681
      ],
      "scale": [
        1.0000001192092896,
        1.0000001192092896,
        1.0
      ],
      "translation": [
        -0.0003347891615703702,
        0.09486918151378632,
        -0.03416815400123596
      ]
    },
    {
      "name": "Shangyanpi_R_01_072",
      "rotation": [
        0.2199205458164215,
        0.0807231217622757,
        -0.3333442211151123,
        0.9132363200187683
      ],
      "scale": [
        0.9999999403953552,
        0.9999999403953552,
        1.0
      ],
      "translation": [
        0.0033631150145083666,
        0.024724842980504036,
        0.01442420668900013
      ]
    },
    {
      "name": "Shangyanpi_R_02_073",
      "rotation": [
        0.2199205905199051,
        0.08072322607040405,
        -0.3333442211151123,
        0.9132362008094788
      ],
      "scale": [
        1.0,
        0.9999999403953552,
        1.0
      ],
      "translation": [
        -0.004140531178563833,
        0.029268141835927963,
        -0.010181527584791183
      ]
    },
    {
      "name": "Shangyanpi_R_003_074",
      "rotation": [
        0.21992088854312897,
        0.08072409778833389,
        -0.333344042301178,
        0.9132360816001892
      ],
      "scale": [
        1.0,
        0.9999998807907104,
        1.0
      ],
      "translation": [
        0.006475870963186026,
        0.020573969930410385,
        0.018167691305279732
      ]
    },
    {
      "name": "Waiyanjiao_R001_075",
      "rotation": [
        0.11176958680152893,
        0.12151883542537689,
        -0.2725372612476349,
        0.9478734731674194
      ],
      "translation": [
        -0.0056976634077727795,
        0.02370040863752365,
        -0.022410202771425247
      ]
    },
    {
      "name": "Shangzuichun_01_076",
      "rotation": [
        0.3619646728038788,
        0.9321883320808411,
        5.573301314143464e-05,
        0.002557850908488035
      ],
      "scale": [
        1.0000001192092896,
        0.9999998211860657,
        0.9999999403953552
      ],
      "translation": [
        0.06122419238090515,
        0.08360308408737183,
        0.0001481402723584324
      ]
    },
    {
      "name": "Shangzuichun_02_077",
      "rotation": [
        5.551709546125494e-05,
        -0.002557119121775031,
        -0.36196380853652954,
        0.9321886301040649
      ],
      "scale": [
        1.0,
        0.9999998807907104,
        1.0000001192092896
      ],
      "translation": [
        0.05894750356674194,
        0.08062002807855606,
        -0.006857816595584154
      ]
    },
    {
      "name": "Shangzuichun_04_078",
      "rotation": [
        0.3619646728038788,
        0.9321883320808411,
        5.560323552344926e-05,
        0.002558184089139104
      ],
      "scale": [
        1.0000001192092896,
        1.0,
        0.9999999403953552
      ],
      "translation": [
        0.05888030678033829,
        0.08064436167478561,
        0.007142094895243645
      ]
    },
    {
      "name": "Waiyanjiao_L_079",
      "rotation": [
        0.3587507903575897,
        0.9247351884841919,
        0.11764323711395264,
        0.04819747805595398
      ],
      "scale": [
        1.0,
        0.999999463558197,
        1.0
      ],
      "translation": [
        -0.0042212242260575294,
        0.10575837641954422,
        0.06678985059261322
      ]
    },
    {
      "name": "Waiyanjiao_R_080",
      "rotation": [
        -0.11753389239311218,
        0.043121177703142166,
        -0.3593941628932953,
        0.9247497916221619
      ],
      "scale": [
        1.0000001192092896,
        1.0,
        1.0000001192092896
      ],
      "translation": [
        -0.003576402086764574,
        0.1055237427353859,
        -0.06720282882452011
      ]
    },
    {
      "children": [
        88,
        89
      ],
      "name": "Xiayanpi_L_081",
      "rotation": [
        0.6665126085281372,
        0.69764244556427,
        0.10692541301250458,
        0.24004767835140228
      ],
      "scale": [
        1.0000001192092896,
        1.000000238418579,
        1.0000001192092896
      ],
      "translation": [
        -0.00027747644344344735,
        0.09423858672380447,
        0.033642273396253586
      ]
    },
    {
      "name": "Xiayanpi_L_01_082",
      "rotation": [
        0.20980577170848846,
        0.19517339766025543,
        -0.2881491482257843,
        0.9137061834335327
      ],
      "scale": [
        1.0,
        1.0,
        0.9999999403953552
      ],
      "translation": [
        0.00747307762503624,
        0.02041478641331196,
        0.016920482739806175
      ]
    },
    {
      "name": "Xiayanpi_L_02_083",
      "rotation": [
        0.20980586111545563,
        0.19517329335212708,
        -0.2881490886211395,
        0.9137061834335327
      ],
      "scale": [
        0.9999999403953552,
        0.9999999403953552,
        0.9999999403953552
      ],
      "translation": [
        -0.00747312605381012,
        0.020768383517861366,
        -0.016920441761612892
      ]
    },
    {
      "children": [
        91,
        92
      ],
      "name": "Xiayanpi_R_084",
      "rotation": [
        -0.10584390163421631,
        0.23225058615207672,
        -0.6672461032867432,
        0.6997423768043518
      ],
      "scale": [
        0.9999999403953552,
        1.0,
        0.9999999403953552
      ],
      "translation": [
        4.8986636102199554e-05,
        0.09411989152431488,
        -0.034165021032094955
      ]
    },
    {
      "name": "Xiayanpi_R_01_085",
      "rotation": [
        0.20916830003261566,
        -0.19186702370643616,
        0.28748828172683716,
        0.914760172367096
      ],
      "scale": [
        0.9999999403953552,
        0.9999998807907104,
        0.9999999403953552
      ],
      "translation": [
        -0.007433144375681877,
        0.02027042582631111,
        0.017284896224737167
      ]
    },
    {
      "name": "Xiayanpi_R_02_086",
      "rotation": [
        0.20916835963726044,
        -0.19186730682849884,
        0.28748825192451477,
        0.9147601127624512
      ],
      "scale": [
        0.9999999403953552,
        0.9999998807907104,
        0.9999998807907104
      ],
      "translation": [
        0.007433086633682251,
        0.020841369405388832,
        -0.017285089939832687
      ]
    },
    {
      "name": "Zuijiao_L_087",
      "rotation": [
        0.3619646728038788,
        0.9321883320808411,
        5.5644541134824976e-05,
        0.00255807233043015
      ],
      "scale": [
        1.0000001192092896,
        1.0,
        0.9999999403953552
      ],
      "translation": [
        0.05674874410033226,
        0.07533732056617737,
        0.014141335152089596
      ]
    },
    {
      "name": "Zuijiao_R_088",
      "rotation": [
        5.6152122851926833e-05,
        -0.0025567705743014812,
        -0.36196380853652954,
        0.9321886301040649
      ],
      "scale": [
        1.0,
        0.9999998211860657,
        1.0
      ],
      "translation": [
        0.05688343569636345,
        0.0752883329987526,
        -0.013858485966920853
      ]
    },
    {
      "children": [
        96,
        116,
        118
      ],
      "name": "Bip001 L Clavicle_089",
      "rotation": [
        0.3690100312232971,
        0.777539849281311,
        -0.4749267101287842,
        -0.18359743058681488
      ],
      "scale": [
        0.9999998807907104,
        0.9999999403953552,
        0.9999999403953552
      ],
      "translation": [
        -0.020999927073717117,
        -0.03554144129157066,
        -0.03915248438715935
      ]
    },
    {
      "children": [
        97,
        114,
        115
      ],
      "name": "Bip001 L UpperArm_090",
      "rotation": [
        0.2378339320421219,
        -0.21825829148292542,
        -0.09433862566947937,
        0.9417530298233032
      ],
      "scale": [
        1.0,
        0.9999998807907104,
        0.9999998211860657
      ],
      "translation": [
        0.0008943080902099609,
        0.058914847671985626,
        0.03869807720184326
      ]
    },
    {
      "children": [
        98
      ],
      "name": "Bip001 L Forearm_091",
      "rotation": [
        -3.5781408769253176e-07,
        1.4056024610908935e-07,
        0.0049184225499629974,
        0.9999879002571106
      ],
      "scale": [
        0.9999999403953552,
        0.9999998211860657,
        1.0
      ],
      "translation": [
        -1.8866267055273056e-06,
        0.20878073573112488,
        -3.703753463923931e-07
      ]
    },
    {
      "children": [
        99,
        102,
        105,
        108,
        111
      ],
      "name": "Bip001 L Hand_092",
      "rotation": [
        0.024407925084233284,
        -0.7202480435371399,
        0.0384044274687767,
        0.6922225952148438
      ],
      "scale": [
        0.9999998211860657,
        0.9999997019767761,
        0.9999998807907104
      ],
      "translation": [
        3.026798367500305e-09,
        0.19626599550247192,
        2.130400389432907e-08
      ]
    },
    {
      "children": [
        100
      ],
      "name": "Bip001 L Finger0_093",
      "rotation": [
        0.1787126213312149,
        0.4123201370239258,
        0.024836352095007896,
        0.8929934501647949
      ],
      "scale": [
        1.0000001192092896,
        1.0000001192092896,
        0.9999998807907104
      ],
      "translation": [
        0.00525539368391037,
        0.012934514321386814,
        0.021857134997844696
      ]
    },
    {
      "children": [
        101
      ],
      "name": "Bip001 L Finger01_094",
      "rotation": [
        -7.257200991261925e-07,
        -1.3415107957825967e-07,
        0.02461145631968975,
        0.9996970891952515
      ],
      "scale": [
        1.0,
        0.9999999403953552,
        1.0000001192092896
      ],
      "translation": [
        2.0489096641540527e-08,
        0.025044461712241173,
        -9.406358003616333e-08
      ]
    },
    {
      "name": "Bip001 L Finger02_095",
      "rotation": [
        -7.336389558076917e-07,
        3.504697815515101e-06,
        0.02461516298353672,
        0.9996970295906067
      ],
      "scale": [
        1.0,
        0.9999999403953552,
        0.9999999403953552
      ],
      "translation": [
        2.60770320892334e-08,
        0.024771973490715027,
        -3.166496753692627e-08
      ]
    },
    {
      "children": [
        103
      ],
      "name": "Bip001 L Finger1_096",
      "rotation": [
        -0.03754094988107681,
        -0.009738758206367493,
        0.006781198550015688,
        0.9992247223854065
      ],
      "scale": [
        0.9999999403953552,
        0.9999998807907104,
        1.0
      ],
      "translation": [
        -0.0009605107479728758,
        0.06829947233200073,
        0.015704192221164703
      ]
    },
    {
      "children": [
        104
      ],
      "name": "Bip001 L Finger11_097",
      "rotation": [
        -3.798622174144839e-06,
        -1.9795275875367224e-05,
        0.01300138235092163,
        0.9999154806137085
      ],
      "translation": [
        -3.1104718800634146e-08,
        0.019641775637865067,
        4.656612873077393e-10
      ]
    },
    {
      "name": "Bip001 L Finger12_098",
      "rotation": [
        1.457061557630368e-06,
        1.0560509508650284e-05,
        0.013031449168920517,
        0.9999151825904846
      ],
      "scale": [
        1.0,
        1.0,
        1.0000001192092896
      ],
      "translation": [
        1.3517274055629969e-07,
        0.01894964836537838,
        9.313225746154785e-10
      ]
    },
    {
      "children": [
        106
      ],
      "name": "Bip001 L Finger2_099",
      "rotation": [
        -0.030665475875139236,
        -0.01043139211833477,
        -0.0095499437302351,
        0.9994296431541443
      ],
      "scale": [
        1.0,
        0.9999999403953552,
        1.0
      ],
      "translation": [
        -0.000843151705339551,
        0.06720151007175446,
        0.0009675719775259495
      ]
    },
    {
      "children": [
        107
      ],
      "name": "Bip001 L Finger21_0100",
      "rotation": [
        4.508035829076107e-07,
        5.3458957154362e-06,
        0.013872839510440826,
        0.9999038577079773
      ],
      "scale": [
        0.9999998807907104,
        0.9999999403953552,
        1.0
      ],
      "translation": [
        -9.841642167884856e-08,
        0.02313467673957348,
        0.0
      ]
    },
    {
      "name": "Bip001 L Finger22_0101",
      "rotation": [
        -8.395151667173195e-07,
        -9.084034218176384e-07,
        0.013866699300706387,
        0.9999038577079773
      ],
      "scale": [
        1.0,
        1.0000001192092896,
        1.0
      ],
      "translation": [
        2.6793713914230466e-09,
        0.022431015968322754,
        -6.984919309616089e-10
      ]
    },
    {
      "children": [
        109
      ],
      "name": "Bip001 L Finger3_0102",
      "rotation": [
        -0.023701265454292297,
        -0.01049083936959505,
        -0.009470752440392971,
        0.99961918592453
      ],
      "scale": [
        1.0,
        0.9999998211860657,
        0.9999999403953552
      ],
      "translation": [
        -0.002679469296708703,
        0.06516880542039871,
        -0.012901978567242622
      ]
    },
    {
      "children": [
        110
      ],
      "name": "Bip001 L Finger31_0103",
      "rotation": [
        -2.127545485564042e-06,
        2.918871814472368e-06,
        0.015965135768055916,
        0.9998725652694702
      ],
      "scale": [
        0.9999999403953552,
        1.0,
        1.0
      ],
      "translation": [
        -7.433845894411206e-08,
        0.021877821534872055,
        -1.862645149230957e-09
      ]
    },
    {
      "name": "Bip001 L Finger32_0104",
      "rotation": [
        3.487410253910639e-07,
        -6.746953204128658e-06,
        0.015955962240695953,
        0.9998728036880493
      ],
      "scale": [
        0.9999999403953552,
        1.0000001192092896,
        1.0
      ],
      "translation": [
        -1.0144140105694532e-07,
        0.019607193768024445,
        -3.725290298461914e-09
      ]
    },
    {
      "children": [
        112
      ],
      "name": "Bip001 L Finger4_0105",
      "rotation": [
        -0.011377827264368534,
        -0.010596739128232002,
        -0.009331434033811092,
        0.9998356699943542
      ],
      "scale": [
        1.0,
        1.0,
        0.9999999403953552
      ],
      "translation": [
        -0.0007722968002781272,
        0.061672817915678024,
        -0.025626882910728455
      ]
    },
    {
      "children": [
        113
      ],
      "name": "Bip001 L Finger41_0106",
      "rotation": [
        7.244194875966059e-06,
        -1.8849435946322046e-05,
        0.01245021354407072,
        0.999922513961792
      ],
      "scale": [
        1.0,
        1.0,
        0.9999999403953552
      ],
      "translation": [
        -7.190101314336061e-08,
        0.014242368750274181,
        -1.862645149230957e-09
      ]
    },
    {
      "name": "Bip001 L Finger42_0107",
      "rotation": [
        -3.7640402297256514e-06,
        5.0987764552701265e-06,
        0.012472789734601974,
        0.9999222159385681
      ],
      "scale": [
        0.9999999403953552,
        1.0,
        1.0
      ],
      "translation": [
        3.518653102219105e-08,
        0.018197666853666306,
        9.313225746154785e-10
      ]
    },
    {
      "name": "Bip001 L ForeTwist_0108",
      "rotation": [
        7.247562461998314e-05,
        -0.01485381182283163,
        0.004917560610920191,
        0.9998776912689209
      ],
      "scale": [
        0.9999999403953552,
        0.9999999403953552,
        1.0
      ],
      "translation": [
        -1.914333552122116e-06,
        0.20878079533576965,
        -4.916801117360592e-07
      ]
    },
    {
      "name": "Bone087(mirrored)_0109",
      "rotation": [
        -0.006432901602238417,
        0.9999651908874512,
        0.00531732477247715,
        -3.293938425485976e-05
      ],
      "scale": [
        0.9999999403953552,
        1.000000238418579,
        0.9999999403953552
      ],
      "translation": [
        3.789318725466728e-06,
        -0.00033695492311380804,
        9.214272722601891e-07
      ]
    },
    {
      "children": [
        117
      ],
      "name": "Bone030(mirrored)_0110",
      "rotation": [
        0.5605134963989258,
        0.03905631601810455,
        0.464219868183136,
        0.6846890449523926
      ],
      "scale": [
        1.0,
        1.0000001192092896,
        0.9999999403953552
      ],
      "translation": [
        -0.016930993646383286,
        0.0798419862985611,
        -0.012124747037887573
      ]
    },
    {
      "name": "Bone032(mirrored)_0111",
      "rotation": [
        1.2256205081939697e-06,
        -1.430511474609375e-06,
        7.376074222520401e-07,
        1.0
      ],
      "scale": [
        1.0,
        1.0000001192092896,
        1.0
      ],
      "translation": [
        -1.862645149230957e-08,
        0.056323930621147156,
        4.842877388000488e-08
      ]
    },
    {
      "children": [
        119
      ],
      "name": "Bone033(mirrored)_0112",
      "rotation": [
        0.31349554657936096,
        0.4839068651199341,
        0.11150931566953659,
        0.8093950748443604
      ],
      "scale": [
        1.0,
        0.9999999403953552,
        0.9999999403953552
      ],
      "translation": [
        0.01603664644062519,
        0.03043258935213089,
        -0.026573210954666138
      ]
    },
    {
      "children": [
        120
      ],
      "name": "Bone034(mirrored)_0113",
      "rotation": [
        4.3882610043510795e-06,
        2.377588316448964e-06,
        0.4512141942977905,
        0.8924157023429871
      ],
      "translation": [
        -9.194669559065005e-08,
        0.07380624115467072,
        -3.725290298461914e-09
      ]
    },
    {
      "children": [
        121
      ],
      "name": "Bone035(mirrored)_0114",
      "rotation": [
        -4.83399844597443e-06,
        6.110248023105669e-07,
        0.08196868747472763,
        0.9966349005699158
      ],
      "scale": [
        0.9999998807907104,
        0.9999999403953552,
        1.0
      ],
      "translation": [
        2.7241185307502747e-08,
        0.0697188451886177,
        2.7939677238464355e-09
      ]
    },
    {
      "name": "Bone036(mirrored)_0115",
      "rotation": [
        1.763900172591093e-06,
        1.2426472721926984e-06,
        0.01535976491868496,
        0.9998820424079895
      ],
      "translation": [
        -4.284083843231201e-08,
        0.08294223994016647,
        -5.587935447692871e-09
      ]
    },
    {
      "children": [
        123,
        143,
        145
      ],
      "name": "Bip001 R Clavicle_0116",
      "rotation": [
        0.3688100576400757,
        0.7774868607521057,
        0.4752129912376404,
        0.18348340690135956
      ],
      "scale": [
        1.0,
        1.000000238418579,
        1.0
      ],
      "translation": [
        -0.020999662578105927,
        -0.035541363060474396,
        0.03915267810225487
      ]
    },
    {
      "children": [
        124,
        141,
        142
      ],
      "name": "Bip001 R UpperArm_0117",
      "rotation": [
        -0.2375817894935608,
        0.21801084280014038,
        -0.09431765973567963,
        0.9418759942054749
      ],
      "scale": [
        1.0,
        0.9999998211860657,
        1.0
      ],
      "translation": [
        0.0009119296446442604,
        0.0589335598051548,
        -0.03866911306977272
      ]
    },
    {
      "children": [
        125
      ],
      "name": "Bip001 R Forearm_0118",
      "rotation": [
        -1.3574010608863318e-06,
        1.441820813852246e-06,
        0.00491372961550951,
        0.9999880194664001
      ],
      "scale": [
        1.0,
        0.9999999403953552,
        0.9999999403953552
      ],
      "translation": [
        -4.353933036327362e-08,
        0.2087807059288025,
        -2.25903932005167e-07
      ]
    },
    {
      "children": [
        126,
        129,
        132,
        135,
        138
      ],
      "name": "Bip001 R Hand_0120",
      "rotation": [
        -0.02440883405506611,
        0.7202491760253906,
        0.038403354585170746,
        0.6922215223312378
      ],
      "scale": [
        1.0,
        1.0000001192092896,
        1.0
      ],
      "translation": [
        -9.42964106798172e-09,
        0.19626587629318237,
        -9.470386430621147e-08
      ]
    },
    {
      "children": [
        127
      ],
      "name": "Bip001 R Finger0_0121",
      "rotation": [
        -0.17871230840682983,
        -0.4123270511627197,
        0.02484363131225109,
        0.8929901123046875
      ],
      "scale": [
        0.9999999403953552,
        1.0,
        0.9999999403953552
      ],
      "translation": [
        0.005255734082311392,
        0.012934780679643154,
        -0.02185710333287716
      ]
    },
    {
      "children": [
        128
      ],
      "name": "Bip001 R Finger01_0122",
      "rotation": [
        -5.934323326073354e-07,
        7.667106729059014e-06,
        0.024605710059404373,
        0.999697208404541
      ],
      "scale": [
        0.9999999403953552,
        0.9999998211860657,
        0.9999999403953552
      ],
      "translation": [
        -7.82310962677002e-08,
        0.02504441700875759,
        1.2759119272232056e-07
      ]
    },
    {
      "name": "Bip001 R Finger02_0123",
      "rotation": [
        -1.7979974131776544e-07,
        -3.3929047731362516e-06,
        0.024616176262497902,
        0.9996969699859619
      ],
      "scale": [
        0.9999999403953552,
        0.9999999403953552,
        1.0
      ],
      "translation": [
        2.9802322387695313e-08,
        0.024771850556135178,
        -1.6763806343078613e-08
      ]
    },
    {
      "children": [
        130
      ],
      "name": "Bip001 R Finger1_0124",
      "rotation": [
        0.03753884881734848,
        0.00974078569561243,
        0.006779362913221121,
        0.9992247223854065
      ],
      "scale": [
        0.9999999403953552,
        1.0,
        0.9999999403953552
      ],
      "translation": [
        -0.000960546312853694,
        0.0682993158698082,
        -0.015704134479165077
      ]
    },
    {
      "children": [
        131
      ],
      "name": "Bip001 R Finger11_0125",
      "rotation": [
        4.7674761844973546e-06,
        1.3718887203140184e-05,
        0.013007448054850101,
        0.9999154210090637
      ],
      "scale": [
        1.0,
        0.9999999403953552,
        1.0000001192092896
      ],
      "translation": [
        8.143979357555509e-08,
        0.01964183710515499,
        -1.3969838619232178e-09
      ]
    },
    {
      "name": "Bip001 R Finger12_0126",
      "rotation": [
        -4.63998048871872e-07,
        -7.5375705819169525e-06,
        0.013028356246650219,
        0.9999151229858398
      ],
      "scale": [
        1.0000001192092896,
        1.0,
        1.0000001192092896
      ],
      "translation": [
        8.519418770447373e-08,
        0.01894987002015114,
        1.734723475976807e-18
      ]
    },
    {
      "children": [
        133
      ],
      "name": "Bip001 R Finger2_0127",
      "rotation": [
        0.030665287747979164,
        0.010416623204946518,
        -0.009536347351968288,
        0.9994299411773682
      ],
      "scale": [
        0.9999999403953552,
        1.0,
        0.9999999403953552
      ],
      "translation": [
        -0.0008425048436038196,
        0.06720149517059326,
        -0.0009676301851868629
      ]
    },
    {
      "children": [
        134
      ],
      "name": "Bip001 R Finger21_0128",
      "rotation": [
        4.8764250095700845e-06,
        2.3472061911888886e-06,
        0.01386540662497282,
        0.9999039769172668
      ],
      "scale": [
        0.9999998807907104,
        0.9999999403953552,
        0.9999999403953552
      ],
      "translation": [
        2.835076884366572e-08,
        0.023134855553507805,
        9.313225746154785e-10
      ]
    },
    {
      "name": "Bip001 R Finger22_0129",
      "rotation": [
        -4.019388597953366e-06,
        6.361748091876507e-06,
        0.01386143360286951,
        0.9999039173126221
      ],
      "translation": [
        -9.905852493830025e-08,
        0.022430744022130966,
        -4.656612873077393e-10
      ]
    },
    {
      "children": [
        136
      ],
      "name": "Bip001 R Finger3_0130",
      "rotation": [
        0.023701835423707962,
        0.010492545552551746,
        -0.009472339414060116,
        0.9996192455291748
      ],
      "scale": [
        0.9999999403953552,
        0.9999998807907104,
        0.9999998807907104
      ],
      "translation": [
        -0.0026798017788678408,
        0.06516905128955841,
        0.012902028858661652
      ]
    },
    {
      "children": [
        137
      ],
      "name": "Bip001 R Finger31_0131",
      "rotation": [
        -4.573280421027448e-06,
        -5.952595074631972e-06,
        0.015967998653650284,
        0.9998725056648254
      ],
      "scale": [
        0.9999998211860657,
        1.0,
        1.0
      ],
      "translation": [
        9.169161785393953e-08,
        0.021877601742744446,
        -6.938893903907228e-18
      ]
    },
    {
      "name": "Bip001 R Finger32_0132",
      "rotation": [
        5.6492590374546126e-06,
        6.4327073232561816e-06,
        0.015956126153469086,
        0.9998728036880493
      ],
      "scale": [
        1.0,
        1.0000001192092896,
        1.0000001192092896
      ],
      "translation": [
        -8.226197678595781e-08,
        0.019606852903962135,
        4.6566128730773926e-09
      ]
    },
    {
      "children": [
        139
      ],
      "name": "Bip001 R Finger4_0133",
      "rotation": [
        0.011375845409929752,
        0.010608944110572338,
        -0.009342698380351067,
        0.9998353719711304
      ],
      "translation": [
        -0.000772420724388212,
        0.06167273595929146,
        0.025626838207244873
      ]
    },
    {
      "children": [
        140
      ],
      "name": "Bip001 R Finger41_0134",
      "rotation": [
        -2.709657564992085e-06,
        -1.2178013093944173e-05,
        0.012479382567107677,
        0.9999221563339233
      ],
      "translation": [
        4.992762114852667e-08,
        0.014242548495531082,
        1.862645149230957e-09
      ]
    },
    {
      "name": "Bip001 R Finger42_0135",
      "rotation": [
        1.3935853075963678e-06,
        1.2058831089234445e-05,
        0.012456724420189857,
        0.999922513961792
      ],
      "scale": [
        0.9999998807907104,
        0.9999999403953552,
        0.9999999403953552
      ],
      "translation": [
        2.35741026699543e-08,
        0.01819712668657303,
        -1.862645149230957e-09
      ]
    },
    {
      "name": "Bip001 R ForeTwist_0136",
      "rotation": [
        -7.471930439351127e-05,
        0.014855901710689068,
        0.004912921227514744,
        0.9998775720596313
      ],
      "scale": [
        0.9999998211860657,
        1.0,
        0.9999999403953552
      ],
      "translation": [
        2.60770320892334e-08,
        0.20878079533576965,
        -2.2939639165997505e-07
      ]
    },
    {
      "name": "Bone087_0137",
      "rotation": [
        -0.005252540577203035,
        0.010304391384124756,
        0.006481638178229332,
        0.9999122023582458
      ],
      "scale": [
        1.0,
        1.0,
        0.9999999403953552
      ],
      "translation": [
        2.6775524020195007e-08,
        -1.2878444977104664e-09,
        5.51488483324647e-07
      ]
    },
    {
      "children": [
        144
      ],
      "name": "Bone030_0138",
      "rotation": [
        -0.46407440304756165,
        0.6848002672195435,
        -0.5604755878448486,
        0.03937840089201927
      ],
      "scale": [
        0.9999998807907104,
        0.9999998211860657,
        0.9999998807907104
      ],
      "translation": [
        -0.016948601230978966,
        0.07975898683071136,
        0.012195457704365253
      ]
    },
    {
      "name": "Bone032_0139",
      "rotation": [
        8.195638656616211e-08,
        1.1632218956947327e-06,
        -1.1008232831954956e-06,
        1.0
      ],
      "translation": [
        -1.862645149230957e-08,
        0.05632396787405014,
        1.4901161193847656e-08
      ]
    },
    {
      "children": [
        146
      ],
      "name": "Bone033_0119",
      "rotation": [
        -0.11132726818323135,
        0.8093321323394775,
        -0.3133147656917572,
        0.4841710329055786
      ],
      "scale": [
        1.0,
        0.9999997615814209,
        0.9999998807907104
      ],
      "translation": [
        0.0160364992916584,
        0.030644292011857033,
        0.026473393663764
      ]
    },
    {
      "children": [
        147
      ],
      "name": "Bone034_0140",
      "rotation": [
        1.0214213119752458e-07,
        -1.1070028449466918e-06,
        -0.45121490955352783,
        0.8924153447151184
      ],
      "scale": [
        0.9999998807907104,
        0.9999998807907104,
        1.0
      ],
      "translation": [
        6.664025420377584e-08,
        0.07380610704421997,
        -2.7939677238464355e-09
      ]
    },
    {
      "children": [
        148
      ],
      "name": "Bone035_0141",
      "rotation": [
        -5.183958364796126e-07,
        1.4703845181429642e-06,
        -0.08197066187858582,
        0.996634840965271
      ],
      "scale": [
        0.9999999403953552,
        0.9999998807907104,
        0.9999999403953552
      ],
      "translation": [
        1.618172973394394e-08,
        0.06971892714500427,
        5.587935447692871e-09
      ]
    },
    {
      "name": "Bone036_0142",
      "rotation": [
        1.8954646918700746e-07,
        -2.348490397707792e-06,
        -0.015358916483819485,
        0.9998820424079895
      ],
      "scale": [
        1.0,
        1.0000001192092896,
        1.0000001192092896
      ],
      "translation": [
        -3.282912075519562e-08,
        0.08294224739074707,
        3.469446951953614e-18
      ]
    },
    {
      "children": [
        150,
        155,
        160,
        165,
        166
      ],
      "name": "Bone089_0143",
      "rotation": [
        -0.4668150246143341,
        0.884354829788208,
        -0.0003972301783505827,
        0.00034928301465697587
      ],
      "scale": [
        0.9999999403953552,
        0.9999995231628418,
        1.0
      ],
      "translation": [
        0.013250686228275299,
        0.10682555288076401,
        -5.556465509926056e-08
      ]
    },
    {
      "children": [
        151
      ],
      "name": "Bone014_0144",
      "rotation": [
        0.5464425086975098,
        0.44936901330947876,
        0.5458411574363708,
        -0.44891592860221863
      ],
      "scale": [
        0.9999998807907104,
        1.0000001192092896,
        0.9999998807907104
      ],
      "translation": [
        0.020809050649404526,
        0.09908188134431839,
        -0.0001072739323717542
      ]
    },
    {
      "children": [
        152
      ],
      "name": "Bone015_0145",
      "rotation": [
        -3.6507665868157346e-07,
        2.779586338874651e-06,
        -3.4376839153082983e-09,
        1.0
      ],
      "translation": [
        0.0,
        0.13934725522994995,
        2.2352516282353463e-08
      ]
    },
    {
      "children": [
        153
      ],
      "name": "Bone016_0146",
      "rotation": [
        6.705531063744274e-08,
        1.1054061133108917e-07,
        -2.1157441665309307e-07,
        1.0
      ],
      "scale": [
        1.0,
        1.0000001192092896,
        1.0000001192092896
      ],
      "translation": [
        3.907985046680551e-14,
        0.16303721070289612,
        -1.471600619140645e-13
      ]
    },
    {
      "children": [
        154
      ],
      "name": "Bone017_0147",
      "rotation": [
        -2.980259949936226e-08,
        -6.127668257249752e-07,
        1.460954308640794e-07,
        1.0
      ],
      "translation": [
        -8.526512829121202e-14,
        0.15420934557914734,
        -1.490147383265139e-08
      ]
    },
    {
      "name": "Bone018_0148",
      "rotation": [
        1.488024192752846e-08,
        -5.866448873348418e-07,
        -6.917024438735098e-05,
        1.0
      ],
      "translation": [
        -1.4210854715202004e-14,
        0.1592904031276703,
        4.0811798385220754e-13
      ]
    },
    {
      "children": [
        156
      ],
      "name": "Bone020_0149",
      "rotation": [
        0.5841318964958191,
        0.3774302005767822,
        0.5342553853988647,
        -0.4805286228656769
      ],
      "scale": [
        0.9999999403953552,
        0.9999998807907104,
        0.9999998807907104
      ],
      "translation": [
        0.01437660213559866,
        0.0814250037074089,
        -0.09799100458621979
      ]
    },
    {
      "children": [
        157
      ],
      "name": "Bone021_0150",
      "rotation": [
        3.4575961649352394e-08,
        -7.123699674593809e-07,
        0.0059434701688587666,
        0.9999823570251465
      ],
      "scale": [
        1.0,
        0.9999999403953552,
        1.0
      ],
      "translation": [
        1.7477994163073163e-08,
        0.13271208107471466,
        -4.190951585769653e-09
      ]
    },
    {
      "children": [
        158
      ],
      "name": "Bone022_0151",
      "rotation": [
        1.3845080104601948e-07,
        -8.78562786965631e-08,
        -0.021818069741129875,
        0.9997620582580566
      ],
      "scale": [
        0.9999999403953552,
        0.9999998807907104,
        1.0
      ],
      "translation": [
        -2.0867446437478065e-08,
        0.1673591285943985,
        3.259629011154175e-09
      ]
    },
    {
      "children": [
        159
      ],
      "name": "Bone023_0152",
      "rotation": [
        -4.261402608563003e-08,
        8.076872290985193e-07,
        -0.01679971255362034,
        0.9998589754104614
      ],
      "scale": [
        1.0,
        0.9999999403953552,
        1.0
      ],
      "translation": [
        -1.3387762010097504e-08,
        0.16444377601146698,
        -5.122274160385132e-09
      ]
    },
    {
      "name": "Bone024_0153",
      "rotation": [
        -9.51911971469599e-08,
        -7.504676204916905e-07,
        0.021335462108254433,
        0.9997723698616028
      ],
      "scale": [
        1.0,
        1.0,
        0.9999999403953552
      ],
      "translation": [
        5.820766091346741e-09,
        0.15070822834968567,
        -1.5366822481155396e-08
      ]
    },
    {
      "children": [
        161
      ],
      "name": "Bone020(mirrored)_0154",
      "rotation": [
        0.5347886085510254,
        0.48103687167167664,
        0.5835042595863342,
        -0.3769981861114502
      ],
      "scale": [
        0.9999997019767761,
        0.9999997019767761,
        0.9999998807907104
      ],
      "translation": [
        0.014425164088606834,
        0.08162683248519897,
        0.09791228920221329
      ]
    },
    {
      "children": [
        162
      ],
      "name": "Bone021(mirrored)_0155",
      "rotation": [
        -6.954774107725825e-07,
        7.096081162671908e-07,
        -0.005943340715020895,
        0.9999823570251465
      ],
      "scale": [
        1.0,
        1.0,
        1.0000001192092896
      ],
      "translation": [
        -2.5634982137034967e-08,
        0.132712259888649,
        -2.8405338525772095e-08
      ]
    },
    {
      "children": [
        163
      ],
      "name": "Bone022(mirrored)_0156",
      "rotation": [
        3.858922923427599e-07,
        8.436298770675421e-08,
        0.021818025037646294,
        0.9997620582580566
      ],
      "translation": [
        8.236384019255638e-09,
        0.16735900938510895,
        4.284083843231201e-08
      ]
    },
    {
      "children": [
        164
      ],
      "name": "Bone023(mirrored)_0157",
      "rotation": [
        1.5648427620362781e-07,
        3.6908868850105137e-08,
        0.01679888740181923,
        0.9998589158058167
      ],
      "scale": [
        0.9999999403953552,
        1.0,
        1.0
      ],
      "translation": [
        -3.277091309428215e-08,
        0.16444413363933563,
        5.122274160385132e-09
      ]
    },
    {
      "name": "Bone024(mirrored)_0158",
      "rotation": [
        2.474388622886181e-07,
        -7.080827799654799e-07,
        -0.021334189921617508,
        0.9997724294662476
      ],
      "scale": [
        1.0,
        0.9999999403953552,
        1.0
      ],
      "translation": [
        1.6298145055770874e-08,
        0.1507081836462021,
        -7.450580596923828e-09
      ]
    },
    {
      "name": "Bone091_0160",
      "rotation": [
        0.23386132717132568,
        0.9722291231155396,
        -0.0025810967199504375,
        0.008527852594852448
      ],
      "scale": [
        1.0000001192092896,
        1.0000001192092896,
        0.9999999403953552
      ],
      "translation": [
        -0.02482057362794876,
        0.011277453973889351,
        -0.06180829182267189
      ]
    },
    {
      "name": "Bone092_0161",
      "rotation": [
        0.0015212390571832657,
        0.008528176695108414,
        -0.23387064039707184,
        0.9722291231155396
      ],
      "scale": [
        0.9999999403953552,
        1.0,
        0.9999999403953552
      ],
      "translation": [
        -0.024789737537503242,
        0.01140500232577324,
        0.0619942881166935
      ]
    },
    {
      "children": [
        168,
        169,
        170,
        171
      ],
      "name": "Bone058_0162",
      "rotation": [
        0.03181618079543114,
        0.022562092170119286,
        0.9782230854034424,
        0.2038586139678955
      ],
      "scale": [
        1.0000005960464478,
        0.9999999403953552,
        0.9999998807907104
      ],
      "translation": [
        -0.016626950353384018,
        0.026464493945240974,
        5.35840772499796e-05
      ]
    },
    {
      "name": "Bone060_0163",
      "rotation": [
        -0.13833512365818024,
        0.7140365242958069,
        -0.05202226713299751,
        0.6843309998512268
      ],
      "scale": [
        1.0,
        1.0000001192092896,
        1.0000001192092896
      ],
      "translation": [
        -0.0021386961452662945,
        0.008883594535291195,
        -0.018956895917654037
      ]
    },
    {
      "name": "Bone062_0164",
      "rotation": [
        -0.027449345216155052,
        0.02744900994002819,
        0.05841846764087677,
        0.9975371360778809
      ],
      "scale": [
        1.0000001192092896,
        1.0,
        0.9999999403953552
      ],
      "translation": [
        0.02225944772362709,
        0.01968059316277504,
        -0.0023847660049796104
      ]
    },
    {
      "name": "Bone064_0165",
      "rotation": [
        -0.04949971288442612,
        -0.6853756308555603,
        0.13557441532611847,
        0.7137433886528015
      ],
      "scale": [
        1.0000001192092896,
        1.0,
        0.9999999403953552
      ],
      "translation": [
        -0.0007416516309604049,
        0.019891927018761635,
        0.021292351186275482
      ]
    },
    {
      "name": "Bone066_0166",
      "rotation": [
        -0.058418456465005875,
        0.9975371956825256,
        -0.027449410408735275,
        -0.02744731307029724
      ],
      "scale": [
        1.0000001192092896,
        1.000000238418579,
        0.9999999403953552
      ],
      "translation": [
        -0.019379105418920517,
        0.014850216917693615,
        4.9285888962913305e-05
      ]
    },
    {
      "children": [
        173
      ],
      "name": "Bone067_0167",
      "rotation": [
        -0.7025464177131653,
        0.07938361912965775,
        0.7026355266571045,
        0.08018771559000015
      ],
      "scale": [
        1.0000022649765015,
        1.0,
        0.9999999403953552
      ],
      "translation": [
        0.07948064804077148,
        0.008916938677430153,
        -6.91758468747139e-05
      ]
    },
    {
      "children": [
        174
      ],
      "name": "Bone068_0168",
      "rotation": [
        6.137367591918519e-08,
        7.436640316882404e-07,
        4.065998950864014e-07,
        1.0
      ],
      "scale": [
        1.0000001192092896,
        1.0000001192092896,
        1.0000001192092896
      ],
      "translation": [
        -4.373390538603417e-12,
        0.06892853230237961,
        7.426254722275871e-09
      ]
    },
    {
      "name": "Bone069_0169",
      "rotation": [
        -2.2716503167430346e-07,
        -3.631506046986033e-07,
        8.173626042662363e-08,
        1.0
      ],
      "scale": [
        1.0000001192092896,
        1.0000001192092896,
        1.0000001192092896
      ],
      "translation": [
        -4.134470543704083e-12,
        0.06675735861063004,
        -1.391364801150985e-11
      ]
    },
    {
      "children": [
        176
      ],
      "name": "Bone071_0170",
      "rotation": [
        0.8699035048484802,
        -0.18626657128334045,
        -0.4520858824253082,
        0.06473805755376816
      ],
      "scale": [
        1.0000005960464478,
        1.000000238418579,
        1.0000005960464478
      ],
      "translation": [
        0.054939381778240204,
        0.01895933784544468,
        0.06972013413906097
      ]
    },
    {
      "children": [
        177
      ],
      "name": "Bone072_0171",
      "rotation": [
        0.008031586185097694,
        -0.0003079924499616027,
        -0.01698324829339981,
        0.9998234510421753
      ],
      "scale": [
        1.0,
        0.9999998807907104,
        0.9999999403953552
      ],
      "translation": [
        -1.862645149230957e-08,
        0.07207957655191422,
        -2.2351741790771484e-08
      ]
    },
    {
      "name": "Bone073_0172",
      "rotation": [
        0.02467534877359867,
        -0.002032517222687602,
        -0.039227645844221115,
        0.9989235401153564
      ],
      "scale": [
        1.0,
        1.0000001192092896,
        1.0
      ],
      "translation": [
        -3.725290298461914e-08,
        0.06873202323913574,
        2.60770320892334e-08
      ]
    },
    {
      "children": [
        179
      ],
      "name": "Bone071(mirrored)_0173",
      "rotation": [
        -0.4509330689907074,
        -0.06574628502130508,
        0.8702790141105652,
        0.1869524121284485
      ],
      "scale": [
        1.0000003576278687,
        0.9999999403953552,
        1.0000004768371582
      ],
      "translation": [
        0.054795924574136734,
        0.019152576103806496,
        -0.07002996653318405
      ]
    },
    {
      "children": [
        180
      ],
      "name": "Bone072(mirrored)_0174",
      "rotation": [
        0.008033011108636856,
        0.0003070097300224006,
        0.016983158886432648,
        0.9998234510421753
      ],
      "scale": [
        0.9999999403953552,
        1.0000001192092896,
        0.9999999403953552
      ],
      "translation": [
        7.450580596923828e-09,
        0.07207953184843063,
        2.60770320892334e-08
      ]
    },
    {
      "name": "Bone073(mirrored)_0175",
      "rotation": [
        0.024674255400896072,
        0.002034371718764305,
        0.039226606488227844,
        0.9989235997200012
      ],
      "scale": [
        0.9999999403953552,
        1.0,
        0.9999998807907104
      ],
      "translation": [
        -1.862645149230957e-08,
        0.0687321126461029,
        1.1175870895385742e-08
      ]
    },
    {
      "children": [
        182
      ],
      "name": "Bone075_0176",
      "rotation": [
        0.7552845478057861,
        -0.29385870695114136,
        -0.5845419764518738,
        -0.03876863047480583
      ],
      "scale": [
        0.9999995827674866,
        0.9999997019767761,
        0.9999998211860657
      ],
      "translation": [
        -0.00581330293789506,
        0.04471199959516525,
        0.09706924110651016
      ]
    },
    {
      "children": [
        183
      ],
      "name": "Bone076_0177",
      "rotation": [
        3.409481621474697e-07,
        2.794657234517217e-07,
        -0.022213585674762726,
        0.9997532367706299
      ],
      "scale": [
        1.0,
        1.0,
        1.0000001192092896
      ],
      "translation": [
        -2.9569491744041443e-08,
        0.062346201390028,
        -8.381903171539307e-09
      ]
    },
    {
      "name": "Bone077_0178",
      "rotation": [
        -2.799608322945346e-09,
        -3.368860745922575e-07,
        -0.06344082206487656,
        0.9979856014251709
      ],
      "scale": [
        1.0,
        0.9999999403953552,
        1.0
      ],
      "translation": [
        3.91155481338501e-08,
        0.07565504312515259,
        1.862645149230957e-09
      ]
    },
    {
      "children": [
        185
      ],
      "name": "Bone075(mirrored)_0179",
      "rotation": [
        -0.5833595991134644,
        0.03802774101495743,
        0.7559370398521423,
        0.2946263253688812
      ],
      "scale": [
        0.9999995827674866,
        0.9999999403953552,
        0.9999997615814209
      ],
      "translation": [
        -0.006012419704347849,
        0.04497998207807541,
        -0.09693184494972229
      ]
    },
    {
      "children": [
        186
      ],
      "name": "Bone076(mirrored)_0159",
      "rotation": [
        1.3321199503479875e-06,
        -4.918596800962405e-07,
        0.0222140084952116,
        0.9997532367706299
      ],
      "scale": [
        0.9999999403953552,
        0.9999999403953552,
        1.0000001192092896
      ],
      "translation": [
        2.6542693376541138e-08,
        0.06234636530280113,
        1.0244548320770264e-08
      ]
    },
    {
      "name": "Bone077(mirrored)_0180",
      "rotation": [
        -5.216601834945322e-07,
        -2.179027802640121e-07,
        0.06344138085842133,
        0.9979856610298157
      ],
      "scale": [
        1.0,
        0.9999998807907104,
        1.0
      ],
      "translation": [
        -1.862645149230957e-09,
        0.07565480470657349,
        9.313225746154785e-09
      ]
    },
    {
      "children": [
        188
      ],
      "name": "Bone079_0181",
      "rotation": [
        -0.48575353622436523,
        0.24477988481521606,
        0.8154334425926208,
        0.19797617197036743
      ],
      "scale": [
        1.000000238418579,
        0.9999999403953552,
        0.9999999403953552
      ],
      "translation": [
        -0.048207614570856094,
        0.05976053699851036,
        0.056963060051202774
      ]
    },
    {
      "children": [
        189
      ],
      "name": "Bone080_0182",
      "rotation": [
        -0.015581805258989334,
        0.0006591021083295345,
        -0.017708275467157364,
        0.9997216463088989
      ],
      "scale": [
        0.9999999403953552,
        1.0,
        1.0
      ],
      "translation": [
        1.4901161193847656e-08,
        0.06472495198249817,
        4.842877388000488e-08
      ]
    },
    {
      "name": "Bone081_0183",
      "rotation": [
        -0.06801921129226685,
        0.0049608079716563225,
        0.0039223493076860905,
        0.9976639747619629
      ],
      "scale": [
        1.0,
        1.0000001192092896,
        0.9999999403953552
      ],
      "translation": [
        -9.313225746154785e-10,
        0.07120943069458008,
        3.3527612686157227e-08
      ]
    },
    {
      "children": [
        191
      ],
      "name": "Bone079(mirrored)_0184",
      "rotation": [
        0.8145957589149475,
        -0.19755633175373077,
        -0.4868629574775696,
        -0.24570249021053314
      ],
      "scale": [
        1.000000238418579,
        1.0000001192092896,
        1.0
      ],
      "translation": [
        -0.0483243502676487,
        0.0599178783595562,
        -0.056867748498916626
      ]
    },
    {
      "children": [
        192
      ],
      "name": "Bone080(mirrored)_0185",
      "rotation": [
        -0.015582297928631306,
        -0.0006588768446817994,
        0.017708009108901024,
        0.9997216463088989
      ],
      "scale": [
        0.9999999403953552,
        0.9999999403953552,
        0.9999999403953552
      ],
      "translation": [
        -5.587935447692871e-09,
        0.06472478806972504,
        -3.5390257835388184e-08
      ]
    },
    {
      "name": "Bone081(mirrored)_0186",
      "rotation": [
        -0.06801879405975342,
        -0.0049612922593951225,
        -0.003921934403479099,
        0.9976639747619629
      ],
      "translation": [
        -1.5832483768463135e-08,
        0.07120957225561142,
        3.3527612686157227e-08
      ]
    },
    {
      "children": [
        194
      ],
      "name": "Bone083_0187",
      "rotation": [
        0.6616660356521606,
        -0.25427961349487305,
        -0.6583330631256104,
        -0.25325384736061096
      ],
      "scale": [
        1.0000005960464478,
        1.000000238418579,
        1.0000001192092896
      ],
      "translation": [
        -0.05534118041396141,
        0.06013195961713791,
        0.00013984035467728972
      ]
    },
    {
      "children": [
        195
      ],
      "name": "Bone084_0188",
      "rotation": [
        -0.061351168900728226,
        -7.853619194975181e-07,
        -2.2886420936174545e-07,
        0.9981162548065186
      ],
      "scale": [
        1.0000001192092896,
        1.0000001192092896,
        1.0
      ],
      "translation": [
        6.816236464146641e-11,
        0.06946028023958206,
        1.3928480591118841e-10
      ]
    },
    {
      "name": "Bone085_0189",
      "rotation": [
        -0.05967138707637787,
        -2.0763293662184878e-07,
        -3.0644196158391424e-07,
        0.9982181787490845
      ],
      "scale": [
        1.0,
        0.9999998211860657,
        1.0
      ],
      "translation": [
        -8.003553375601768e-11,
        0.06787069886922836,
        -2.0378365661599673e-09
      ]
    },
    {
      "children": [
        197
      ],
      "name": "Bip001 Prop1_0190",
      "rotation": [
        -0.4998058080673218,
        -0.5003541707992554,
        0.4993487298488617,
        0.5004904866218567
      ],
      "translation": [
        -0.8636760115623474,
        -0.02963138371706009,
        -0.18407122790813446
      ]
    },
    {
      "name": "Point001_0191",
      "rotation": [
        0.7068958282470703,
        0.0009265420376323164,
        0.7073166370391846,
        -0.0007990772719494998
      ],
      "scale": [
        1.0000011920928955,
        1.0,
        1.0
      ],
      "translation": [
        2.0017600377286726e-07,
        -0.6717227697372437,
        -0.00043153014848940074
      ]
    },
    {
      "matrix": [
        100.0,
        0.0,
        0.0,
        0.0,
        0.0,
        6.123233995736766e-15,
        -100.0,
        0.0,
        0.0,
        100.0,
        6.123233995736766e-15,
        0.0,
        0.0,
        0.0,
        0.0,
        1.0
      ],
      "name": "Object_198"
    },
    {
      "mesh": 0,
      "name": "Object_199",
      "skin": 0
    }
  ],
  "samplers": [
    {
      "magFilter": 9729,
      "minFilter": 9987,
      "wrapS": 10497,
      "wrapT": 10497
    }
  ],
  "scene": 0,
  "scenes": [
    {
      "name": "Sketchfab_Scene",
      "nodes": [
        0
      ]
    }
  ],
  "skins": [
    {
      "inverseBindMatrices": 4,
      "joints": [
        5,
        6,
        7,
        8,
        9,
        10,
        11,
        12,
        13,
        14,
        15,
        16,
        17,
        18,
        19,
        20,
        21,
        22,
        23,
        24,
        25,
        26,
        27,
        28,
        29,
        30,
        31,
        32,
        33,
        34,
        35,
        36,
        37,
        38,
        39,
        40,
        41,
        42,
        43,
        44,
        45,
        46,
        47,
        48,
        49,
        50,
        51,
        52,
        53,
        54,
        55,
        56,
        57,
        58,
        59,
        60,
        61,
        62,
        63,
        64,
        65,
        66,
        67,
        68,
        69,
        70,
        71,
        72,
        73,
        74,
        75,
        76,
        77,
        78,
        79,
        80,
        81,
        82,
        83,
        84,
        85,
        86,
        87,
        88,
        89,
        90,
        91,
        92,
        93,
        94,
        95,
        96,
        97,
        98,
        99,
        100,
        101,
        102,
        103,
        104,
        105,
        106,
        107,
        108,
        109,
        110,
        111,
        112,
        113,
        114,
        115,
        116,
        117,
        118,
        119,
        120,
        121,
        122,
        123,
        124,
        125,
        126,
        127,
        128,
        129,
        130,
        131,
        132,
        133,
        134,
        135,
        136,
        137,
        138,
        139,
        140,
        141,
        142,
        143,
        144,
        145,
        146,
        147,
        148,
        149,
        150,
        151,
        152,
        153,
        154,
        155,
        156,
        157,
        158,
        159,
        160,
        161,
        162,
        163,
        164,
        165,
        166,
        167,
        168,
        169,
        170,
        171,
        172,
        173,
        174,
        175,
        176,
        177,
        178,
        179,
        180,
        181,
        182,
        183,
        184,
        185,
        186,
        187,
        188,
        189,
        190,
        191,
        192,
        193,
        194,
        195,
        196,
        197
      ],
      "skeleton": 5
    }
  ],
  "textures": [
    {
      "sampler": 0,
      "source": 0
    },
    {
      "sampler": 0,
      "source": 1
    }
  ]
}
