{
  "accessors": [
    {
      "bufferView": 2,
      "componentType": 5126,
      "count": 14336,
      "max": [
        0.19018599390983582,
        0.23780199885368347,
        -0.692870020866394
      ],
      "min": [
        -0.19018399715423584,
        -0.0881040021777153,
        -0.7595490217208862
      ],
      "type": "VEC3"
    },
    {
      "bufferView": 2,
      "byteOffset": 172032,
      "componentType": 5126,
      "count": 14336,
      "max": [
        0.9997002482414246,
        0.9999032020568848,
        0.9999550580978394
      ],
      "min": [
        -0.9997077584266663,
        -0.9999017715454102,
        -0.9999802112579346
      ],
      "type": "VEC3"
    },
    {
      "bufferView": 1,
      "componentType": 5126,
      "count": 14336,
      "max": [
        0.29166701436042786,
        0.6250010132789612
      ],
      "min": [
        0.25,
        0.5833330154418945
      ],
      "type": "VEC2"
    },
    {
      "bufferView": 0,
      "componentType": 5125,
      "count": 86016,
      "type": "SCALAR"
    },
    {
      "bufferView": 2,
      "byteOffset": 344064,
      "componentType": 5126,
      "count": 1924,
      "max": [
        0.2858709990978241,
        0.37539198994636536,
        0.6930869817733765
      ],
      "min": [
        -0.2858709990978241,
        0.20930199325084686,
        0.5134850144386292
      ],
      "type": "VEC3"
    },
    {
      "bufferView": 2,
      "byteOffset": 367152,
      "componentType": 5126,
      "count": 1924,
      "max": [
        0.9872991442680359,
        0.9905042052268982,
        0.9658331274986267
      ],
      "min": [
        -0.9872991442680359,
        -0.9999850988388062,
        -0.9906024932861328
      ],
      "type": "VEC3"
    },
    {
      "bufferView": 1,
      "byteOffset": 114688,
      "componentType": 5126,
      "count": 1924,
      "max": [
        0.0,
        0.0
      ],
      "min": [
        0.0,
        0.0
      ],
      "type": "VEC2"
    },
    {
      "bufferView": 0,
      "byteOffset": 344064,
      "componentType": 5125,
      "count": 11520,
      "type": "SCALAR"
    },
    {
      "bufferView": 2,
      "byteOffset": 390240,
      "componentType": 5126,
      "count": 438,
      "max": [
        0.2515220046043396,
        0.3607099950313568,
        0.6586639881134033
      ],
      "min": [
        -0.2515220046043396,
        0.2302200049161911,
        0.5399460196495056
      ],
      "type": "VEC3"
    },
    {
      "bufferView": 2,
      "byteOffset": 395496,
      "componentType": 5126,
      "count": 438,
      "max": [
        0.9867703914642334,
        0.9990177750587463,
        0.9984604120254517
      ],
      "min": [
        -0.9867703914642334,
        -0.9978591203689575,
        -0.9989626407623291
      ],
      "type": "VEC3"
    },
    {
      "bufferView": 1,
      "byteOffset": 130080,
      "componentType": 5126,
      "count": 438,
      "max": [
        0.875,
        1.0
      ],
      "min": [
        0.125,
        0.0
      ],
      "type": "VEC2"
    },
    {
      "bufferView": 0,
      "byteOffset": 390144,
      "componentType": 5125,
      "count": 2208,
      "type": "SCALAR"
    },
    {
      "bufferView": 2,
      "byteOffset": 400752,
      "componentType": 5126,
      "count": 21626,
      "max": [
        0.31770798563957214,
        0.2203429937362671,
        -0.4184029996395111
      ],
      "min": [
        -0.31770798563957214,
        -0.09220299869775772,
        -0.9131079912185669
      ],
      "type": "VEC3"
    },
    {
      "bufferView": 2,
      "byteOffset": 660264,
      "componentType": 5126,
      "count": 21626,
      "max": [
        0.9999651908874512,
        0.9999866485595703,
        0.9998194575309753
      ],
      "min": [
        -0.9999651908874512,
        -0.999742329120636,
        -0.9997860789299011
      ],
      "type": "VEC3"
    },
    {
      "bufferView": 1,
      "byteOffset": 133584,
      "componentType": 5126,
      "count": 21626,
      "max": [
        0.46533098816871643,
        0.6640170216560364
      ],
      "min": [
        0.23722399771213531,
        0.0
      ],
      "type": "VEC2"
    },
    {
      "bufferView": 0,
      "byteOffset": 398976,
      "componentType": 5125,
      "count": 124800,
      "type": "SCALAR"
    },
    {
      "bufferView": 2,
      "byteOffset": 919776,
      "componentType": 5126,
      "count": 964,
      "max": [
        0.28004100918769836,
        0.35975000262260437,
        0.07886700332164764
      ],
      "min": [
        -0.28004100918769836,
        0.2334589958190918,
        -0.23893199861049652
      ],
      "type": "VEC3"
    },
    {
      "bufferView": 2,
      "byteOffset": 931344,
      "componentType": 5126,
      "count": 964,
      "max": [
        0.9808833599090576,
        0.9996593594551086,
        1.0
      ],
      "min": [
        -0.9808833599090576,
        -0.9996593594551086,
        -1.0
      ],
      "type": "VEC3"
    },
    {
      "bufferView": 1,
      "byteOffset": 306592,
      "componentType": 5126,
      "count": 964,
      "max": [
        1.0,
        1.0
      ],
      "min": [
        0.0,
        0.0
      ],
      "type": "VEC2"
    },
    {
      "bufferView": 0,
      "byteOffset": 898176,
      "componentType": 5125,
      "count": 5760,
      "type": "SCALAR"
    },
    {
      "bufferView": 2,
      "byteOffset": 942912,
      "componentType": 5126,
      "count": 96,
      "max": [
        0.8644130229949951,
        0.8956689834594727,
        0.24318300187587738
      ],
      "min": [
        -0.8644090294837952,
        -0.8534169793128967,
        -0.11577799916267395
      ],
      "type": "VEC3"
    },
    {
      "bufferView": 2,
      "byteOffset": 944064,
      "componentType": 5126,
      "count": 96,
      "max": [
        0.9920456409454346,
        0.9938874244689941,
        0.5191060304641724
      ],
      "min": [
        -0.9913585782051086,
        -0.9895190000534058,
        -0.9935041666030884
      ],
      "type": "VEC3"
    },
    {
      "bufferView": 1,
      "byteOffset": 314304,
      "componentType": 5126,
      "count": 96,
      "max": [
        0.486939013004303,
        0.8371120095252991
      ],
      "min": [
        0.0993880033493042,
        0.4493040144443512
      ],
      "type": "VEC2"
    },
    {
      "bufferView": 0,
      "byteOffset": 921216,
      "componentType": 5125,
      "count": 384,
      "type": "SCALAR"
    },
    {
      "bufferView": 2,
      "byteOffset": 945216,
      "componentType": 5126,
      "count": 99,
      "max": [
        0.5156340003013611,
        0.4716300070285797,
        0.47988399863243103
      ],
      "min": [
        -0.5156340003013611,
        -0.4770970046520233,
        0.20438100397586823
      ],
      "type": "VEC3"
    },
    {
      "bufferView": 2,
      "byteOffset": 946404,
      "componentType": 5126,
      "count": 99,
      "max": [
        0.8762046098709106,
        0.8718931674957275,
        0.5190362930297852
      ],
      "min": [
        -0.8842858672142029,
        -0.9901195168495178,
        0.14020241796970367
      ],
      "type": "VEC3"
    },
    {
      "bufferView": 1,
      "byteOffset": 315072,
      "componentType": 5126,
      "count": 99,
      "max": [
        0.9969679713249207,
        0.989512026309967
      ],
      "min": [
        0.5027250051498413,
        -1.0122679471969604
      ],
      "type": "VEC2"
    },
    {
      "bufferView": 0,
      "byteOffset": 922752,
      "componentType": 5125,
      "count": 384,
      "type": "SCALAR"
    },
    {
      "bufferView": 2,
      "byteOffset": 947592,
      "componentType": 5126,
      "count": 920,
      "max": [
        -0.47337499260902405,
        -0.5628299713134766,
        0.6236460208892822
      ],
      "min": [
        -0.6044009923934937,
        -0.6341140270233154,
        0.39611199498176575
      ],
      "type": "VEC3"
    },
    {
      "bufferView": 2,
      "byteOffset": 958632,
      "componentType": 5126,
      "count": 920,
      "max": [
        0.9997898936271667,
        0.9989944100379944,
        0.9994911551475525
      ],
      "min": [
        -1.0,
        -0.9989944100379944,
        -0.999549925327301
      ],
      "type": "VEC3"
    },
    {
      "bufferView": 1,
      "byteOffset": 315864,
      "componentType": 5126,
      "count": 920,
      "max": [
        1.0176810026168823,
        1.0
      ],
      "min": [
        -0.017681000754237175,
        0.009999999776482582
      ],
      "type": "VEC2"
    },
    {
      "bufferView": 0,
      "byteOffset": 924288,
      "componentType": 5125,
      "count": 4608,
      "type": "SCALAR"
    },
    {
      "bufferView": 2,
      "byteOffset": 969672,
      "componentType": 5126,
      "count": 65532,
      "max": [
        0.29547399282455444,
        0.2286520004272461,
        -0.4220840036869049
      ],
      "min": [
        -0.31477099657058716,
        -0.09377700090408325,
        -0.971464991569519
      ],
      "type": "VEC3"
    },
    {
      "bufferView": 2,
      "byteOffset": 1756056,
      "componentType": 5126,
      "count": 65532,
      "max": [
        0.9999887943267822,
        0.9999979734420776,
        0.9993234872817993
      ],
      "min": [
        -0.9999887943267822,
        -0.9999971389770508,
        -0.9999871253967285
      ],
      "type": "VEC3"
    },
    {
      "bufferView": 1,
      "byteOffset": 323224,
      "componentType": 5126,
      "count": 65532,
      "max": [
        8.428075790405273,
        1.0
      ],
      "min": [
        -7.3486738204956055,
        0.0
      ],
      "type": "VEC2"
    },
    {
      "bufferView": 0,
      "byteOffset": 942720,
      "componentType": 5125,
      "count": 381996,
      "type": "SCALAR"
    },
    {
      "bufferView": 2,
      "byteOffset": 2542440,
      "componentType": 5126,
      "count": 21913,
      "max": [
        0.31477099657058716,
        0.23311999440193176,
        -0.4331650137901306
      ],
      "min": [
        -0.2063249945640564,
        -0.09083600342273712,
        -0.9585000276565552
      ],
      "type": "VEC3"
    },
    {
      "bufferView": 2,
      "byteOffset": 2805396,
      "componentType": 5126,
      "count": 21913,
      "max": [
        0.9960920810699463,
        0.9999973773956299,
        0.9993234872817993
      ],
      "min": [
        -0.9999887943267822,
        -0.9999979734420776,
        -0.9745426177978516
      ],
      "type": "VEC3"
    },
    {
      "bufferView": 1,
      "byteOffset": 847480,
      "componentType": 5126,
      "count": 21913,
      "max": [
        0.42409300804138184,
        0.6484709978103638
      ],
      "min": [
        0.005863000173121691,
        0.21032899618148804
      ],
      "type": "VEC2"
    },
    {
      "bufferView": 0,
      "byteOffset": 2470704,
      "componentType": 5125,
      "count": 126036,
      "type": "SCALAR"
    },
    {
      "bufferView": 2,
      "byteOffset": 3068352,
      "componentType": 5126,
      "count": 16896,
      "max": [
        0.14011600613594055,
        0.10331299901008606,
        -1.0460549592971802
      ],
      "min": [
        -0.14011600613594055,
        -0.005371000152081251,
        -1.166458010673523
      ],
      "type": "VEC3"
    },
    {
      "bufferView": 2,
      "byteOffset": 3271104,
      "componentType": 5126,
      "count": 16896,
      "max": [
        0.9975926280021667,
        0.9910165071487427,
        0.8000133633613586
      ],
      "min": [
        -0.9975926280021667,
        -0.9910165071487427,
        -0.7884754538536072
      ],
      "type": "VEC3"
    },
    {
      "bufferView": 1,
      "byteOffset": 1022784,
      "componentType": 5126,
      "count": 16896,
      "max": [
        0.29166701436042786,
        0.6264309883117676
      ],
      "min": [
        0.25633299350738525,
        0.5833330154418945
      ],
      "type": "VEC2"
    },
    {
      "bufferView": 0,
      "byteOffset": 2974848,
      "componentType": 5125,
      "count": 98304,
      "type": "SCALAR"
    },
    {
      "bufferView": 2,
      "byteOffset": 3473856,
      "componentType": 5126,
      "count": 28484,
      "max": [
        0.1554339975118637,
        0.12537400424480438,
        -1.0418089628219604
      ],
      "min": [
        -0.1554339975118637,
        -0.017768999561667442,
        -1.1810599565505981
      ],
      "type": "VEC3"
    },
    {
      "bufferView": 2,
      "byteOffset": 3815664,
      "componentType": 5126,
      "count": 28484,
      "max": [
        0.9999971389770508,
        0.9999867677688599,
        0.9999902248382568
      ],
      "min": [
        -0.9999971389770508,
        -0.9999867677688599,
        -0.9999908208847046
      ],
      "type": "VEC3"
    },
    {
      "bufferView": 1,
      "byteOffset": 1157952,
      "componentType": 5126,
      "count": 28484,
      "max": [
        0.29166701436042786,
        0.6264309883117676
      ],
      "min": [
        0.25633299350738525,
        0.5833330154418945
      ],
      "type": "VEC2"
    },
    {
      "bufferView": 0,
      "byteOffset": 3368064,
      "componentType": 5125,
      "count": 167808,
      "type": "SCALAR"
    },
    {
      "bufferView": 2,
      "byteOffset": 4157472,
      "componentType": 5126,
      "count": 65532,
      "max": [
        0.41188299655914307,
        0.43364301323890686,
        0.39057400822639465
      ],
      "min": [
        -0.4135200083255768,
        -0.363303005695343,
        -0.79612797498703
      ],
      "type": "VEC3"
    },
    {
      "bufferView": 2,
      "byteOffset": 4943856,
      "componentType": 5126,
      "count": 65532,
      "max": [
        0.999877393245697,
        0.9999969005584717,
        0.9990556240081787
      ],
      "min": [
        -0.9997963309288025,
        -0.9999427795410156,
        -0.9999977350234985
      ],
      "type": "VEC3"
    },
    {
      "bufferView": 1,
      "byteOffset": 1385824,
      "componentType": 5126,
      "count": 65532,
      "max": [
        0.75,
        0.875
      ],
      "min": [
        0.25,
        0.375
      ],
      "type": "VEC2"
    },
    {
      "bufferView": 0,
      "byteOffset": 4039296,
      "componentType": 5125,
      "count": 382170,
      "type": "SCALAR"
    },
    {
      "bufferView": 2,
      "byteOffset": 5730240,
      "componentType": 5126,
      "count": 65532,
      "max": [
        0.41192498803138733,
        0.42180800437927246,
        0.4427970051765442
      ],
      "min": [
        -0.42025500535964966,
        -0.36486199498176575,
        -1.1771600246429443
      ],
      "type": "VEC3"
    },
    {
      "bufferView": 2,
      "byteOffset": 6516624,
      "componentType": 5126,
      "count": 65532,
      "max": [
        0.9999942779541016,
        0.9999462366104126,
        0.9991695880889893
      ],
      "min": [
        -0.9999942779541016,
        -0.999996542930603,
        -0.9999672174453735
      ],
      "type": "VEC3"
    },
    {
      "bufferView": 1,
      "byteOffset": 1910080,
      "componentType": 5126,
      "count": 65532,
      "max": [
        0.75,
        0.875
      ],
      "min": [
        0.25,
        0.375
      ],
      "type": "VEC2"
    },
    {
      "bufferView": 0,
      "byteOffset": 5567976,
      "componentType": 5125,
      "count": 380127,
      "type": "SCALAR"
    },
    {
      "bufferView": 2,
      "byteOffset": 7303008,
      "componentType": 5126,
      "count": 56554,
      "max": [
        0.42025500535964966,
        0.4166260063648224,
        0.4851529896259308
      ],
      "min": [
        -0.41192498803138733,
        -0.36486300826072693,
        -0.9691839814186096
      ],
      "type": "VEC3"
    },
    {
      "bufferView": 2,
      "byteOffset": 7981656,
      "componentType": 5126,
      "count": 56554,
      "max": [
        0.9999270439147949,
        0.9999462366104126,
        0.9999988079071045
      ],
      "min": [
        -0.999988317489624,
        -0.9999985694885254,
        -0.999851644039154
      ],
      "type": "VEC3"
    },
    {
      "bufferView": 1,
      "byteOffset": 2434336,
      "componentType": 5126,
      "count": 56554,
      "max": [
        0.75,
        0.875
      ],
      "min": [
        0.25,
        0.37723299860954285
      ],
      "type": "VEC2"
    },
    {
      "bufferView": 0,
      "byteOffset": 7088484,
      "componentType": 5125,
      "count": 331335,
      "type": "SCALAR"
    },
    {
      "bufferView": 2,
      "byteOffset": 8660304,
      "componentType": 5126,
      "count": 3825,
      "max": [
        0.2200459986925125,
        0.2294739931821823,
        -0.7906659841537476
      ],
      "min": [
        -0.2200459986925125,
        -0.09280399978160858,
        -0.8904330134391785
      ],
      "type": "VEC3"
    },
    {
      "bufferView": 2,
      "byteOffset": 8706204,
      "componentType": 5126,
      "count": 3825,
      "max": [
        0.9190821051597595,
        0.9852184057235718,
        0.434486448764801
      ],
      "min": [
        -0.9190821051597595,
        -0.9998014569282532,
        -0.17130319774150848
      ],
      "type": "VEC3"
    },
    {
      "bufferView": 1,
      "byteOffset": 2886768,
      "componentType": 5126,
      "count": 3825,
      "max": [
        9.5703763961792,
        1.0204429626464844
      ],
      "min": [
        -8.498461723327637,
        -0.009006000123918056
      ],
      "type": "VEC2"
    },
    {
      "bufferView": 0,
      "byteOffset": 8413824,
      "componentType": 5125,
      "count": 21504,
      "type": "SCALAR"
    },
    {
      "bufferView": 2,
      "byteOffset": 8752104,
      "componentType": 5126,
      "count": 1500,
      "max": [
        0.014801999554038048,
        0.22433200478553772,
        -0.5203109979629517
      ],
      "min": [
        -0.014801999554038048,
        0.21493299305438995,
        -0.6164550185203552
      ],
      "type": "VEC3"
    },
    {
      "bufferView": 2,
      "byteOffset": 8770104,
      "componentType": 5126,
      "count": 1500,
      "max": [
        0.29700276255607605,
        0.999997615814209,
        0.18870645761489868
      ],
      "min": [
        -0.29700276255607605,
        0.9547088742256165,
        -0.05820301175117493
      ],
      "type": "VEC3"
    },
    {
      "bufferView": 1,
      "byteOffset": 2917368,
      "componentType": 5126,
      "count": 1500,
      "max": [
        0.3513210117816925,
        0.5586140155792236
      ],
      "min": [
        0.3309650123119354,
        0.5416849851608276
      ],
      "type": "VEC2"
    },
    {
      "bufferView": 0,
      "byteOffset": 8499840,
      "componentType": 5125,
      "count": 8448,
      "type": "SCALAR"
    },
    {
      "bufferView": 2,
      "byteOffset": 8788104,
      "componentType": 5126,
      "count": 8188,
      "max": [
        0.0338749997317791,
        0.24035100638866425,
        -0.6903570294380188
      ],
      "min": [
        -0.0338749997317791,
        0.21867099404335022,
        -0.7441620230674744
      ],
      "type": "VEC3"
    },
    {
      "bufferView": 2,
      "byteOffset": 8886360,
      "componentType": 5126,
      "count": 8188,
      "max": [
        0.8188305497169495,
        0.8091355562210083,
        0.99989914894104
      ],
      "min": [
        -0.8188305497169495,
        -0.16390535235404968,
        -0.9854417443275452
      ],
      "type": "VEC3"
    },
    {
      "bufferView": 1,
      "byteOffset": 2929368,
      "componentType": 5126,
      "count": 8188,
      "max": [
        0.0,
        0.0
      ],
      "min": [
        0.0,
        0.0
      ],
      "type": "VEC2"
    },
    {
      "bufferView": 0,
      "byteOffset": 8533632,
      "componentType": 5125,
      "count": 12288,
      "type": "SCALAR"
    },
    {
      "bufferView": 2,
      "byteOffset": 8984616,
      "componentType": 5126,
      "count": 15736,
      "max": [
        0.04440699890255928,
        0.24241800606250763,
        -0.682541012763977
      ],
      "min": [
        -0.04440699890255928,
        0.21856600046157837,
        -0.7531179785728455
      ],
      "type": "VEC3"
    },
    {
      "bufferView": 2,
      "byteOffset": 9173448,
      "componentType": 5126,
      "count": 15736,
      "max": [
        0.9999946355819702,
        0.9996381402015686,
        0.9999923706054688
      ],
      "min": [
        -0.9999946355819702,
        -0.9999622106552124,
        -0.9999942779541016
      ],
      "type": "VEC3"
    },
    {
      "bufferView": 1,
      "byteOffset": 2994872,
      "componentType": 5126,
      "count": 15736,
      "max": [
        0.2622259855270386,
        0.5833330154418945
      ],
      "min": [
        0.24990800023078918,
        0.5833330154418945
      ],
      "type": "VEC2"
    },
    {
      "bufferView": 0,
      "byteOffset": 8582784,
      "componentType": 5125,
      "count": 93696,
      "type": "SCALAR"
    },
    {
      "bufferView": 2,
      "byteOffset": 9362280,
      "componentType": 5126,
      "count": 4177,
      "max": [
        0.03912600129842758,
        0.24325299263000488,
        -0.7149829864501953
      ],
      "min": [
        0.0072650001384317875,
        0.22718499600887299,
        -0.7239369750022888
      ],
      "type": "VEC3"
    },
    {
      "bufferView": 2,
      "byteOffset": 9412404,
      "componentType": 5126,
      "count": 4177,
      "max": [
        0.9999682903289795,
        0.991552472114563,
        0.9993788003921509
      ],
      "min": [
        -0.9299351572990417,
        -0.9993802309036255,
        -0.9999939203262329
      ],
      "type": "VEC3"
    },
    {
      "bufferView": 1,
      "byteOffset": 3120760,
      "componentType": 5126,
      "count": 4177,
      "max": [
        0.2555440068244934,
        0.5833330154418945
      ],
      "min": [
        0.0,
        0.0
      ],
      "type": "VEC2"
    },
    {
      "bufferView": 0,
      "byteOffset": 8957568,
      "componentType": 5125,
      "count": 15360,
      "type": "SCALAR"
    },
    {
      "bufferView": 2,
      "byteOffset": 9462528,
      "componentType": 5126,
      "count": 8190,
      "max": [
        -0.004772999789565802,
        0.16285699605941772,
        -0.3815160095691681
      ],
      "min": [
        -0.03908799961209297,
        0.1429540067911148,
        -0.4107449948787689
      ],
      "type": "VEC3"
    },
    {
      "bufferView": 2,
      "byteOffset": 9560808,
      "componentType": 5126,
      "count": 8190,
      "max": [
        0.7514777779579163,
        0.9325775504112244,
        0.9997885823249817
      ],
      "min": [
        -0.8668836951255798,
        -0.3071955144405365,
        -0.9999964237213135
      ],
      "type": "VEC3"
    },
    {
      "bufferView": 1,
      "byteOffset": 3154176,
      "componentType": 5126,
      "count": 8190,
      "max": [
        0.0,
        0.0
      ],
      "min": [
        0.0,
        0.0
      ],
      "type": "VEC2"
    },
    {
      "bufferView": 0,
      "byteOffset": 9019008,
      "componentType": 5125,
      "count": 12288,
      "type": "SCALAR"
    },
    {
      "bufferView": 2,
      "byteOffset": 9659088,
      "componentType": 5126,
      "count": 15736,
      "max": [
        0.0007120000082068145,
        0.16510699689388275,
        -0.3768090009689331
      ],
      "min": [
        -0.04354599863290787,
        0.1408340036869049,
        -0.4154289960861206
      ],
      "type": "VEC3"
    },
    {
      "bufferView": 2,
      "byteOffset": 9847920,
      "componentType": 5126,
      "count": 15736,
      "max": [
        0.9999985694885254,
        0.999893307685852,
        0.9999525547027588
      ],
      "min": [
        -0.9999359846115112,
        -0.9998260140419006,
        -0.9998494982719421
      ],
      "type": "VEC3"
    },
    {
      "bufferView": 1,
      "byteOffset": 3219696,
      "componentType": 5126,
      "count": 15736,
      "max": [
        0.2622259855270386,
        0.5833330154418945
      ],
      "min": [
        0.24990800023078918,
        0.5833330154418945
      ],
      "type": "VEC2"
    },
    {
      "bufferView": 0,
      "byteOffset": 9068160,
      "componentType": 5125,
      "count": 93696,
      "type": "SCALAR"
    },
    {
      "bufferView": 2,
      "byteOffset": 10036752,
      "componentType": 5126,
      "count": 5440,
      "max": [
        0.07620400190353394,
        0.1622299998998642,
        -0.37687399983406067
      ],
      "min": [
        -0.07662899792194366,
        -0.038839999586343765,
        -0.4103809893131256
      ],
      "type": "VEC3"
    },
    {
      "bufferView": 2,
      "byteOffset": 10102032,
      "componentType": 5126,
      "count": 5440,
      "max": [
        0.9934425950050354,
        0.9926156401634216,
        0.8842035531997681
      ],
      "min": [
        -0.9934425950050354,
        -0.9926156401634216,
        -0.8739024996757507
      ],
      "type": "VEC3"
    },
    {
      "bufferView": 1,
      "byteOffset": 3345584,
      "componentType": 5126,
      "count": 5440,
      "max": [
        0.29166701436042786,
        0.625
      ],
      "min": [
        0.25,
        0.5833330154418945
      ],
      "type": "VEC2"
    },
    {
      "bufferView": 0,
      "byteOffset": 9442944,
      "componentType": 5125,
      "count": 32640,
      "type": "SCALAR"
    },
    {
      "bufferView": 2,
      "byteOffset": 10167312,
      "componentType": 5126,
      "count": 6336,
      "max": [
        0.1544319987297058,
        0.11501500010490417,
        -0.9399380087852478
      ],
      "min": [
        0.02818799950182438,
        -0.022422999143600464,
        -1.1252739429473877
      ],
      "type": "VEC3"
    },
    {
      "bufferView": 2,
      "byteOffset": 10243344,
      "componentType": 5126,
      "count": 6336,
      "max": [
        0.9975487589836121,
        0.9980338215827942,
        0.8775750398635864
      ],
      "min": [
        -0.9975487589836121,
        -0.9980338215827942,
        -0.8230432868003845
      ],
      "type": "VEC3"
    },
    {
      "bufferView": 1,
      "byteOffset": 3389104,
      "componentType": 5126,
      "count": 6336,
      "max": [
        0.29166701436042786,
        0.625
      ],
      "min": [
        0.25633299350738525,
        0.5833330154418945
      ],
      "type": "VEC2"
    },
    {
      "bufferView": 0,
      "byteOffset": 9573504,
      "componentType": 5125,
      "count": 38016,
      "type": "SCALAR"
    },
    {
      "bufferView": 2,
      "byteOffset": 10319376,
      "componentType": 5126,
      "count": 65532,
      "max": [
        0.39419400691986084,
        0.1306159943342209,
        -0.4106689989566803
      ],
      "min": [
        -0.403328001499176,
        -0.12534299492835999,
        -1.0598230361938477
      ],
      "type": "VEC3"
    },
    {
      "bufferView": 2,
      "byteOffset": 11105760,
      "componentType": 5126,
      "count": 65532,
      "max": [
        0.7722086310386658,
        0.9998809099197388,
        0.9473628401756287
      ],
      "min": [
        -0.9796156883239746,
        -0.9998809099197388,
        -0.9854475855827332
      ],
      "type": "VEC3"
    },
    {
      "bufferView": 1,
      "byteOffset": 3439792,
      "componentType": 5126,
      "count": 65532,
      "max": [
        1.0,
        0.9824219942092896
      ],
      "min": [
        0.5,
        0.0
      ],
      "type": "VEC2"
    },
    {
      "bufferView": 0,
      "byteOffset": 9725568,
      "componentType": 5125,
      "count": 388254,
      "type": "SCALAR"
    },
    {
      "bufferView": 2,
      "byteOffset": 11892144,
      "componentType": 5126,
      "count": 51594,
      "max": [
        0.41361600160598755,
        0.18091300129890442,
        -0.35607200860977173
      ],
      "min": [
        -0.41361600160598755,
        -0.12534299492835999,
        -1.0598230361938477
      ],
      "type": "VEC3"
    },
    {
      "bufferView": 2,
      "byteOffset": 12511272,
      "componentType": 5126,
      "count": 51594,
      "max": [
        0.999873697757721,
        0.999995231628418,
        0.9997262358665466
      ],
      "min": [
        -0.9998723864555359,
        -0.9999964237213135,
        -0.9999706745147705
      ],
      "type": "VEC3"
    },
    {
      "bufferView": 1,
      "byteOffset": 3964048,
      "componentType": 5126,
      "count": 51594,
      "max": [
        1.0,
        1.0
      ],
      "min": [
        0.5,
        0.0
      ],
      "type": "VEC2"
    },
    {
      "bufferView": 0,
      "byteOffset": 11278584,
      "componentType": 5125,
      "count": 304482,
      "type": "SCALAR"
    },
    {
      "bufferView": 2,
      "byteOffset": 13130400,
      "componentType": 5126,
      "count": 192,
      "max": [
        0.025346999987959862,
        0.2258490025997162,
        -0.518792986869812
      ],
      "min": [
        -0.025346999987959862,
        0.21043099462985992,
        -0.6270999908447266
      ],
      "type": "VEC3"
    },
    {
      "bufferView": 2,
      "byteOffset": 13132704,
      "componentType": 5126,
      "count": 192,
      "max": [
        1.0,
        0.9970002174377441,
        0.7235640287399292
      ],
      "min": [
        -0.7375094294548035,
        -0.9970002174377441,
        -0.7311009764671326
      ],
      "type": "VEC3"
    },
    {
      "bufferView": 1,
      "byteOffset": 4376800,
      "componentType": 5126,
      "count": 192,
      "max": [
        0.875,
        1.0
      ],
      "min": [
        0.125,
        0.0
      ],
      "type": "VEC2"
    },
    {
      "bufferView": 0,
      "byteOffset": 12496512,
      "componentType": 5125,
      "count": 426,
      "type": "SCALAR"
    },
    {
      "bufferView": 2,
      "byteOffset": 13135008,
      "componentType": 5126,
      "count": 23552,
      "max": [
        0.24904100596904755,
        0.4195280075073242,
        0.10764600336551666
      ],
      "min": [
        -0.24904100596904755,
        0.37213200330734253,
        0.03415200114250183
      ],
      "type": "VEC3"
    },
    {
      "bufferView": 2,
      "byteOffset": 13417632,
      "componentType": 5126,
      "count": 23552,
      "max": [
        0.9990250468254089,
        0.9997972846031189,
        0.9941681027412415
      ],
      "min": [
        -0.9990250468254089,
        -0.9991247057914734,
        -0.9990413188934326
      ],
      "type": "VEC3"
    },
    {
      "bufferView": 1,
      "byteOffset": 4378336,
      "componentType": 5126,
      "count": 23552,
      "max": [
        0.0,
        0.0
      ],
      "min": [
        0.0,
        0.0
      ],
      "type": "VEC2"
    },
    {
      "bufferView": 0,
      "byteOffset": 12498216,
      "componentType": 5125,
      "count": 35328,
      "type": "SCALAR"
    },
    {
      "bufferView": 2,
      "byteOffset": 13700256,
      "componentType": 5126,
      "count": 23044,
      "max": [
        0.2851249873638153,
        0.3874950110912323,
        -0.008577999658882618
      ],
      "min": [
        -0.2851249873638153,
        0.25318700075149536,
        -0.1460770070552826
      ],
      "type": "VEC3"
    },
    {
      "bufferView": 2,
      "byteOffset": 13976784,
      "componentType": 5126,
      "count": 23044,
      "max": [
        0.9999802112579346,
        0.9988170266151428,
        0.9999969005584717
      ],
      "min": [
        -0.9999802112579346,
        -0.9998423457145691,
        -0.9999942779541016
      ],
      "type": "VEC3"
    },
    {
      "bufferView": 1,
      "byteOffset": 4566752,
      "componentType": 5126,
      "count": 23044,
      "max": [
        0.4758189916610718,
        0.5100409984588623
      ],
      "min": [
        0.41218000650405884,
        0.38395801186561584
      ],
      "type": "VEC2"
    },
    {
      "bufferView": 0,
      "byteOffset": 12639528,
      "componentType": 5125,
      "count": 138240,
      "type": "SCALAR"
    },
    {
      "bufferView": 2,
      "byteOffset": 14253312,
      "componentType": 5126,
      "count": 4332,
      "max": [
        0.2663320004940033,
        0.46243399381637573,
        0.5112320184707642
      ],
      "min": [
        -0.25801700353622437,
        -0.02136100083589554,
        0.010006999596953392
      ],
      "type": "VEC3"
    },
    {
      "bufferView": 2,
      "byteOffset": 14305296,
      "componentType": 5126,
      "count": 4332,
      "max": [
        0.9989014267921448,
        0.9997548460960388,
        0.9961470365524292
      ],
      "min": [
        -0.9999301433563232,
        -0.9997128844261169,
        -0.996090292930603
      ],
      "type": "VEC3"
    },
    {
      "bufferView": 1,
      "byteOffset": 4751104,
      "componentType": 5126,
      "count": 4332,
      "max": [
        1.0,
        1.0
      ],
      "min": [
        0.0,
        0.0
      ],
      "type": "VEC2"
    },
    {
      "bufferView": 0,
      "byteOffset": 13192488,
      "componentType": 5125,
      "count": 24192,
      "type": "SCALAR"
    },
    {
      "bufferView": 2,
      "byteOffset": 14357280,
      "componentType": 5126,
      "count": 15504,
      "max": [
        0.5469620227813721,
        0.38716399669647217,
        0.5221760272979736
      ],
      "min": [
        -0.545773983001709,
        -0.06889799982309341,
        -0.5335019826889038
      ],
      "type": "VEC3"
    },
    {
      "bufferView": 2,
      "byteOffset": 14543328,
      "componentType": 5126,
      "count": 15504,
      "max": [
        0.9998939037322998,
        0.9988210797309875,
        0.9995519518852234
      ],
      "min": [
        -0.9998939037322998,
        -0.9992740154266357,
        -0.9998521208763123
      ],
      "type": "VEC3"
    },
    {
      "bufferView": 1,
      "byteOffset": 4785760,
      "componentType": 5126,
      "count": 15504,
      "max": [
        1.0,
        1.0
      ],
      "min": [
        0.0,
        0.0
      ],
      "type": "VEC2"
    },
    {
      "bufferView": 0,
      "byteOffset": 13289256,
      "componentType": 5125,
      "count": 86832,
      "type": "SCALAR"
    },
    {
      "bufferView": 2,
      "byteOffset": 14729376,
      "componentType": 5126,
      "count": 21660,
      "max": [
        0.48743298649787903,
        0.037262000143527985,
        0.5142459869384766
      ],
      "min": [
        -0.47292500734329224,
        -0.4357059895992279,
        -0.35440701246261597
      ],
      "type": "VEC3"
    },
    {
      "bufferView": 2,
      "byteOffset": 14989296,
      "componentType": 5126,
      "count": 21660,
      "max": [
        0.9998995065689087,
        0.9999827146530151,
        0.9999427795410156
      ],
      "min": [
        -0.9999314546585083,
        -0.9999833106994629,
        -0.9998570084571838
      ],
      "type": "VEC3"
    },
    {
      "bufferView": 1,
      "byteOffset": 4909792,
      "componentType": 5126,
      "count": 21660,
      "max": [
        1.0,
        1.0
      ],
      "min": [
        0.0,
        0.0
      ],
      "type": "VEC2"
    },
    {
      "bufferView": 0,
      "byteOffset": 13636584,
      "componentType": 5125,
      "count": 121284,
      "type": "SCALAR"
    },
    {
      "bufferView": 2,
      "byteOffset": 15249216,
      "componentType": 5126,
      "count": 2946,
      "max": [
        0.061507999897003174,
        0.4652850031852722,
        0.5059790015220642
      ],
      "min": [
        -0.11707399785518646,
        0.014566999860107899,
        -0.07040499895811081
      ],
      "type": "VEC3"
    },
    {
      "bufferView": 2,
      "byteOffset": 15284568,
      "componentType": 5126,
      "count": 2946,
      "max": [
        0.9996182322502136,
        0.999964714050293,
        0.9996686577796936
      ],
      "min": [
        -0.9995532631874084,
        -0.9999896287918091,
        -0.9997733235359192
      ],
      "type": "VEC3"
    },
    {
      "bufferView": 1,
      "byteOffset": 5083072,
      "componentType": 5126,
      "count": 2946,
      "max": [
        1.0,
        1.0
      ],
      "min": [
        0.0,
        0.0
      ],
      "type": "VEC2"
    },
    {
      "bufferView": 0,
      "byteOffset": 14121720,
      "componentType": 5125,
      "count": 17664,
      "type": "SCALAR"
    },
    {
      "bufferView": 2,
      "byteOffset": 15319920,
      "componentType": 5126,
      "count": 2307,
      "max": [
        0.8644130229949951,
        0.8911740183830261,
        0.9363740086555481
      ],
      "min": [
        -0.8644090294837952,
        -0.8495460152626038,
        -0.11577799916267395
      ],
      "type": "VEC3"
    },
    {
      "bufferView": 2,
      "byteOffset": 15347604,
      "componentType": 5126,
      "count": 2307,
      "max": [
        0.998049259185791,
        0.9991487264633179,
        0.9998282790184021
      ],
      "min": [
        -0.9990871548652649,
        -0.9978309273719788,
        -0.9998898506164551
      ],
      "type": "VEC3"
    },
    {
      "bufferView": 1,
      "byteOffset": 5106640,
      "componentType": 5126,
      "count": 2307,
      "max": [
        0.9969679713249207,
        1.6518069505691528
      ],
      "min": [
        0.1374790072441101,
        -0.5303940176963806
      ],
      "type": "VEC2"
    },
    {
      "bufferView": 0,
      "byteOffset": 14192376,
      "componentType": 5125,
      "count": 12768,
      "type": "SCALAR"
    },
    {
      "bufferView": 2,
      "byteOffset": 15375288,
      "componentType": 5126,
      "count": 4352,
      "max": [
        -0.03137199953198433,
        0.10498999804258347,
        -1.0267879962921143
      ],
      "min": [
        -0.1414950042963028,
        -0.007849999703466892,
        -1.0913490056991577
      ],
      "type": "VEC3"
    },
    {
      "bufferView": 2,
      "byteOffset": 15427512,
      "componentType": 5126,
      "count": 4352,
      "max": [
        0.9932023882865906,
        0.9871822595596313,
        0.8497632145881653
      ],
      "min": [
        -0.9932023882865906,
        -0.9871822595596313,
        -0.832654595375061
      ],
      "type": "VEC3"
    },
    {
      "bufferView": 1,
      "byteOffset": 5125096,
      "componentType": 5126,
      "count": 4352,
      "max": [
        0.29166701436042786,
        0.625
      ],
      "min": [
        0.25633299350738525,
        0.5833330154418945
      ],
      "type": "VEC2"
    },
    {
      "bufferView": 0,
      "byteOffset": 14243448,
      "componentType": 5125,
      "count": 26112,
      "type": "SCALAR"
    },
    {
      "bufferView": 2,
      "byteOffset": 15479736,
      "componentType": 5126,
      "count": 8592,
      "max": [
        -0.02944999933242798,
        0.10924900323152542,
        -0.9771140217781067
      ],
      "min": [
        -0.1448020040988922,
        -0.011075999587774277,
        -1.0428810119628906
      ],
      "type": "VEC3"
    },
    {
      "bufferView": 2,
      "byteOffset": 15582840,
      "componentType": 5126,
      "count": 8592,
      "max": [
        0.9999563694000244,
        0.9999819993972778,
        0.8559927344322205
      ],
      "min": [
        -0.9999563694000244,
        -0.9999819993972778,
        -0.8750683069229126
      ],
      "type": "VEC3"
    },
    {
      "bufferView": 1,
      "byteOffset": 5159912,
      "componentType": 5126,
      "count": 8592,
      "max": [
        0.29166701436042786,
        0.625
      ],
      "min": [
        0.25633299350738525,
        0.5833330154418945
      ],
      "type": "VEC2"
    },
    {
      "bufferView": 0,
      "byteOffset": 14347896,
      "componentType": 5125,
      "count": 51552,
      "type": "SCALAR"
    },
    {
      "bufferView": 2,
      "byteOffset": 15685944,
      "componentType": 5126,
      "count": 8704,
      "max": [
        -0.027401000261306763,
        0.11480800062417984,
        -0.9377179741859436
      ],
      "min": [
        -0.15625500679016113,
        -0.02132900059223175,
        -1.067533016204834
      ],
      "type": "VEC3"
    },
    {
      "bufferView": 2,
      "byteOffset": 15790392,
      "componentType": 5126,
      "count": 8704,
      "max": [
        0.9984497427940369,
        0.9895601272583008,
        0.8898435831069946
      ],
      "min": [
        -0.9984497427940369,
        -0.9895601272583008,
        -0.8775047063827515
      ],
      "type": "VEC3"
    },
    {
      "bufferView": 1,
      "byteOffset": 5228648,
      "componentType": 5126,
      "count": 8704,
      "max": [
        0.29166701436042786,
        0.625
      ],
      "min": [
        0.25633299350738525,
        0.5833330154418945
      ],
      "type": "VEC2"
    },
    {
      "bufferView": 0,
      "byteOffset": 14554104,
      "componentType": 5125,
      "count": 52224,
      "type": "SCALAR"
    }
  ],
  "asset": {
    "extras": {
      "author": "JCatt (https://sketchfab.com/officialjcatt)",
      "license": "CC-BY-4.0 (http://creativecommons.org/licenses/by/4.0/)",
      "source": "https://sketchfab.com/3d-models/chibi-megumin-03c804f7661c45cfbb50bff2ae95707d",
      "title": "Chibi Megumin"
    },
    "generator": "Sketchfab-12.68.0",
    "version": "2.0"
  },
  "bufferViews": [
    {
      "buffer": 0,
      "byteLength": 14763000,
      "name": "floatBufferViews",
      "target": 34963
    },
    {
      "buffer": 0,
      "byteLength": 5298280,
      "byteOffset": 14763000,
      "byteStride": 8,
      "name": "floatBufferViews",
      "target": 34962
    },
    {
      "buffer": 0,
      "byteLength": 15894840,
      "byteOffset": 20061280,
      "byteStride": 12,
      "name": "floatBufferViews",
      "target": 34962
    }
  ],
  "buffers": [
    {
      "byteLength": 35956120,
      "uri": "scene.bin"
    }
  ],
  "images": [
    {
      "uri": "textures/material_baseColor.png"
    },
    {
      "uri": "textures/HatStrips_baseColor.png"
    },
    {
      "uri": "textures/Triangles_baseColor.png"
    }
  ],
  "materials": [
    {
      "doubleSided": true,
      "name": "Belt",
      "pbrMetallicRoughness": {
        "baseColorFactor": [
          0.015209,
          0.008568,
          0.009134,
          1.0
        ],
        "metallicFactor": 0.0,
        "roughnessFactor": 0.8063508326896291
      }
    },
    {
      "doubleSided": true,
      "name": "Buckle",
      "pbrMetallicRoughness": {
        "baseColorFactor": [
          0.119538,
          0.119538,
          0.119538,
          1.0
        ],
        "metallicFactor": 0.0,
        "roughnessFactor": 0.7811550545439305
      }
    },
    {
      "doubleSided": true,
      "name": "Button",
      "pbrMetallicRoughness": {
        "baseColorFactor": [
          0.428691,
          0.011612,
          0.011612,
          1.0
        ],
        "metallicFactor": 0.0,
        "roughnessFactor": 0.8063508326896291
      }
    },
    {
      "doubleSided": true,
      "name": "ButtonEye",
      "pbrMetallicRoughness": {
        "baseColorFactor": [
          0.913099,
          0.212231,
          0.008568,
          1.0
        ],
        "metallicFactor": 0.0,
        "roughnessFactor": 0.8063508326896291
      }
    },
    {
      "doubleSided": true,
      "name": "Cape",
      "pbrMetallicRoughness": {
        "baseColorFactor": [
          0.08022,
          0.026241,
          0.030713,
          1.0
        ],
        "metallicFactor": 0.0,
        "roughnessFactor": 0.8063508326896291
      }
    },
    {
      "doubleSided": true,
      "name": "Collar",
      "pbrMetallicRoughness": {
        "baseColorFactor": [
          0.913099,
          0.212231,
          0.008568,
          1.0
        ],
        "metallicFactor": 0.0,
        "roughnessFactor": 0.8063508326896291
      }
    },
    {
      "doubleSided": true,
      "name": "material",
      "pbrMetallicRoughness": {
        "baseColorTexture": {
          "index": 0
        },
        "metallicFactor": 0.0,
        "roughnessFactor": 0.8106524862720683
      }
    },
    {
      "doubleSided": true,
      "name": "Hair",
      "pbrMetallicRoughness": {
        "baseColorFactor": [
          0.056129,
          0.03434,
          0.040915,
          1.0
        ],
        "metallicFactor": 0.0,
        "roughnessFactor": 0.8063508326896291
      }
    },
    {
      "doubleSided": true,
      "name": "HatColor",
      "pbrMetallicRoughness": {
        "baseColorFactor": [
          0.08022,
          0.026241,
          0.030713,
          1.0
        ],
        "metallicFactor": 0.0,
        "roughnessFactor": 0.8632217600132619
      }
    },
    {
      "doubleSided": true,
      "name": "HatStripe",
      "pbrMetallicRoughness": {
        "baseColorFactor": [
          0.921582,
          0.514917,
          0.074214,
          1.0
        ],
        "metallicFactor": 0.0,
        "roughnessFactor": 0.8063508326896291
      }
    },
    {
      "doubleSided": true,
      "name": "HatStrips",
      "pbrMetallicRoughness": {
        "baseColorTexture": {
          "index": 1
        },
        "metallicFactor": 0.0,
        "roughnessFactor": 0.7880318375580224
      }
    },
    {
      "doubleSided": true,
      "name": "Material",
      "pbrMetallicRoughness": {
        "baseColorFactor": [
          0.982251,
          0.686685,
          0.035601,
          1.0
        ],
        "metallicFactor": 0.0,
        "roughnessFactor": 0.8063508326896291
      }
    },
    {
      "doubleSided": true,
      "name": "Offwhite",
      "pbrMetallicRoughness": {
        "baseColorFactor": [
          0.8,
          0.8,
          0.8,
          1.0
        ],
        "metallicFactor": 0.0,
        "roughnessFactor": 0.8063508326896291
      }
    },
    {
      "doubleSided": true,
      "name": "Shirt",
      "pbrMetallicRoughness": {
        "baseColorFactor": [
          0.473532,
          0.011612,
          0.011612,
          1.0
        ],
        "metallicFactor": 0.0,
        "roughnessFactor": 0.8063508326896291
      }
    },
    {
      "doubleSided": true,
      "name": "Shoes",
      "pbrMetallicRoughness": {
        "baseColorFactor": [
          0.913099,
          0.212231,
          0.008568,
          1.0
        ],
        "metallicFactor": 0.0,
        "roughnessFactor": 0.8063508326896291
      }
    },
    {
      "doubleSided": true,
      "name": "Shoes2",
      "pbrMetallicRoughness": {
        "baseColorFactor": [
          0.964687,
          0.527115,
          0.026241,
          1.0
        ],
        "metallicFactor": 0.0,
        "roughnessFactor": 0.8063508326896291
      }
    },
    {
      "doubleSided": true,
      "name": "Skin",
      "pbrMetallicRoughness": {
        "baseColorFactor": [
          0.973446,
          0.745404,
          0.47932,
          1.0
        ],
        "metallicFactor": 0.0,
        "roughnessFactor": 0.8063508326896291
      }
    },
    {
      "alphaMode": "BLEND",
      "doubleSided": true,
      "name": "Triangles",
      "pbrMetallicRoughness": {
        "baseColorTexture": {
          "index": 2
        },
        "metallicFactor": 0.0,
        "roughnessFactor": 0.8063508326896291
      }
    },
    {
      "doubleSided": true,
      "name": "UnderShirt",
      "pbrMetallicRoughness": {
        "metallicFactor": 0.0,
        "roughnessFactor": 0.8063508326896291
      }
    },
    {
      "doubleSided": true,
      "name": "White",
      "pbrMetallicRoughness": {
        "metallicFactor": 0.0,
        "roughnessFactor": 0.8063508326896291
      }
    }
  ],
  "meshes": [
    {
      "name": "Object_0",
      "primitives": [
        {
          "attributes": {
            "NORMAL": 1,
            "POSITION": 0,
            "TEXCOORD_0": 2
          },
          "indices": 3,
          "material": 0,
          "mode": 4
        }
      ]
    },
    {
      "name": "Object_1",
      "primitives": [
        {
          "attributes": {
            "NORMAL": 5,
            "POSITION": 4,
            "TEXCOORD_0": 6
          },
          "indices": 7,
          "material": 2,
          "mode": 4
        }
      ]
    },
    {
      "name": "Object_2",
      "primitives": [
        {
          "attributes": {
            "NORMAL": 9,
            "POSITION": 8,
            "TEXCOORD_0": 10
          },
          "indices": 11,
          "material": 3,
          "mode": 4
        }
      ]
    },
    {
      "name": "Object_3",
      "primitives": [
        {
          "attributes": {
            "NORMAL": 13,
            "POSITION": 12,
            "TEXCOORD_0": 14
          },
          "indices": 15,
          "material": 5,
          "mode": 4
        }
      ]
    },
    {
      "name": "Object_4",
      "primitives": [
        {
          "attributes": {
            "NORMAL": 17,
            "POSITION": 16,
            "TEXCOORD_0": 18
          },
          "indices": 19,
          "material": 6,
          "mode": 4
        }
      ]
    },
    {
      "name": "Object_5",
      "primitives": [
        {
          "attributes": {
            "NORMAL": 21,
            "POSITION": 20,
            "TEXCOORD_0": 22
          },
          "indices": 23,
          "material": 9,
          "mode": 4
        }
      ]
    },
    {
      "name": "Object_6",
      "primitives": [
        {
          "attributes": {
            "NORMAL": 25,
            "POSITION": 24,
            "TEXCOORD_0": 26
          },
          "indices": 27,
          "material": 10,
          "mode": 4
        }
      ]
    },
    {
      "name": "Object_7",
      "primitives": [
        {
          "attributes": {
            "NORMAL": 29,
            "POSITION": 28,
            "TEXCOORD_0": 30
          },
          "indices": 31,
          "material": 11,
          "mode": 4
        }
      ]
    },
    {
      "name": "Object_8",
      "primitives": [
        {
          "attributes": {
            "NORMAL": 33,
            "POSITION": 32,
            "TEXCOORD_0": 34
          },
          "indices": 35,
          "material": 13,
          "mode": 4
        }
      ]
    },
    {
      "name": "Object_9",
      "primitives": [
        {
          "attributes": {
            "NORMAL": 37,
            "POSITION": 36,
            "TEXCOORD_0": 38
          },
          "indices": 39,
          "material": 13,
          "mode": 4
        }
      ]
    },
    {
      "name": "Object_10",
      "primitives": [
        {
          "attributes": {
            "NORMAL": 41,
            "POSITION": 40,
            "TEXCOORD_0": 42
          },
          "indices": 43,
          "material": 14,
          "mode": 4
        }
      ]
    },
    {
      "name": "Object_11",
      "primitives": [
        {
          "attributes": {
            "NORMAL": 45,
            "POSITION": 44,
            "TEXCOORD_0": 46
          },
          "indices": 47,
          "material": 15,
          "mode": 4
        }
      ]
    },
    {
      "name": "Object_12",
      "primitives": [
        {
          "attributes": {
            "NORMAL": 49,
            "POSITION": 48,
            "TEXCOORD_0": 50
          },
          "indices": 51,
          "material": 16,
          "mode": 4
        }
      ]
    },
    {
      "name": "Object_13",
      "primitives": [
        {
          "attributes": {
            "NORMAL": 53,
            "POSITION": 52,
            "TEXCOORD_0": 54
          },
          "indices": 55,
          "material": 16,
          "mode": 4
        }
      ]
    },
    {
      "name": "Object_14",
      "primitives": [
        {
          "attributes": {
            "NORMAL": 57,
            "POSITION": 56,
            "TEXCOORD_0": 58
          },
          "indices": 59,
          "material": 16,
          "mode": 4
        }
      ]
    },
    {
      "name": "Object_15",
      "primitives": [
        {
          "attributes": {
            "NORMAL": 61,
            "POSITION": 60,
            "TEXCOORD_0": 62
          },
          "indices": 63,
          "material": 17,
          "mode": 4
        }
      ]
    },
    {
      "name": "Object_16",
      "primitives": [
        {
          "attributes": {
            "NORMAL": 65,
            "POSITION": 64,
            "TEXCOORD_0": 66
          },
          "indices": 67,
          "material": 18,
          "mode": 4
        }
      ]
    },
    {
      "name": "Object_17",
      "primitives": [
        {
          "attributes": {
            "NORMAL": 69,
            "POSITION": 68,
            "TEXCOORD_0": 70
          },
          "indices": 71,
          "material": 1,
          "mode": 4
        }
      ]
    },
    {
      "name": "Object_18",
      "primitives": [
        {
          "attributes": {
            "NORMAL": 73,
            "POSITION": 72,
            "TEXCOORD_0": 74
          },
          "indices": 75,
          "material": 1,
          "mode": 4
        }
      ]
    },
    {
      "name": "Object_19",
      "primitives": [
        {
          "attributes": {
            "NORMAL": 77,
            "POSITION": 76,
            "TEXCOORD_0": 78
          },
          "indices": 79,
          "material": 1,
          "mode": 4
        }
      ]
    },
    {
      "name": "Object_20",
      "primitives": [
        {
          "attributes": {
            "NORMAL": 81,
            "POSITION": 80,
            "TEXCOORD_0": 82
          },
          "indices": 83,
          "material": 1,
          "mode": 4
        }
      ]
    },
    {
      "name": "Object_21",
      "primitives": [
        {
          "attributes": {
            "NORMAL": 85,
            "POSITION": 84,
            "TEXCOORD_0": 86
          },
          "indices": 87,
          "material": 1,
          "mode": 4
        }
      ]
    },
    {
      "name": "Object_22",
      "primitives": [
        {
          "attributes": {
            "NORMAL": 89,
            "POSITION": 88,
            "TEXCOORD_0": 90
          },
          "indices": 91,
          "material": 4,
          "mode": 4
        }
      ]
    },
    {
      "name": "Object_23",
      "primitives": [
        {
          "attributes": {
            "NORMAL": 93,
            "POSITION": 92,
            "TEXCOORD_0": 94
          },
          "indices": 95,
          "material": 4,
          "mode": 4
        }
      ]
    },
    {
      "name": "Object_24",
      "primitives": [
        {
          "attributes": {
            "NORMAL": 97,
            "POSITION": 96,
            "TEXCOORD_0": 98
          },
          "indices": 99,
          "material": 4,
          "mode": 4
        }
      ]
    },
    {
      "name": "Object_25",
      "primitives": [
        {
          "attributes": {
            "NORMAL": 101,
            "POSITION": 100,
            "TEXCOORD_0": 102
          },
          "indices": 103,
          "material": 4,
          "mode": 4
        }
      ]
    },
    {
      "name": "Object_26",
      "primitives": [
        {
          "attributes": {
            "NORMAL": 105,
            "POSITION": 104,
            "TEXCOORD_0": 106
          },
          "indices": 107,
          "material": 4,
          "mode": 4
        }
      ]
    },
    {
      "name": "Object_27",
      "primitives": [
        {
          "attributes": {
            "NORMAL": 109,
            "POSITION": 108,
            "TEXCOORD_0": 110
          },
          "indices": 111,
          "material": 7,
          "mode": 4
        }
      ]
    },
    {
      "name": "Object_28",
      "primitives": [
        {
          "attributes": {
            "NORMAL": 113,
            "POSITION": 112,
            "TEXCOORD_0": 114
          },
          "indices": 115,
          "material": 7,
          "mode": 4
        }
      ]
    },
    {
      "name": "Object_29",
      "primitives": [
        {
          "attributes": {
            "NORMAL": 117,
            "POSITION": 116,
            "TEXCOORD_0": 118
          },
          "indices": 119,
          "material": 7,
          "mode": 4
        }
      ]
    },
    {
      "name": "Object_30",
      "primitives": [
        {
          "attributes": {
            "NORMAL": 121,
            "POSITION": 120,
            "TEXCOORD_0": 122
          },
          "indices": 123,
          "material": 7,
          "mode": 4
        }
      ]
    },
    {
      "name": "Object_31",
      "primitives": [
        {
          "attributes": {
            "NORMAL": 125,
            "POSITION": 124,
            "TEXCOORD_0": 126
          },
          "indices": 127,
          "material": 7,
          "mode": 4
        }
      ]
    },
    {
      "name": "Object_32",
      "primitives": [
        {
          "attributes": {
            "NORMAL": 129,
            "POSITION": 128,
            "TEXCOORD_0": 130
          },
          "indices": 131,
          "material": 7,
          "mode": 4
        }
      ]
    },
    {
      "name": "Object_33",
      "primitives": [
        {
          "attributes": {
            "NORMAL": 133,
            "POSITION": 132,
            "TEXCOORD_0": 134
          },
          "indices": 135,
          "material": 8,
          "mode": 4
        }
      ]
    },
    {
      "name": "Object_34",
      "primitives": [
        {
          "attributes": {
            "NORMAL": 137,
            "POSITION": 136,
            "TEXCOORD_0": 138
          },
          "indices": 139,
          "material": 12,
          "mode": 4
        }
      ]
    },
    {
      "name": "Object_35",
      "primitives": [
        {
          "attributes": {
            "NORMAL": 141,
            "POSITION": 140,
            "TEXCOORD_0": 142
          },
          "indices": 143,
          "material": 12,
          "mode": 4
        }
      ]
    },
    {
      "name": "Object_36",
      "primitives": [
        {
          "attributes": {
            "NORMAL": 145,
            "POSITION": 144,
            "TEXCOORD_0": 146
          },
          "indices": 147,
          "material": 19,
          "mode": 4
        }
      ]
    }
  ],
  "nodes": [
    {
      "children": [
        1
      ],
      "matrix": [
        -1.0,
        -6.290011496532519e-32,
        2.832769343193999e-16,
        0.0,
        2.832769343193999e-16,
        -2.220446049250313e-16,
        1.0,
        0.0,
        0.0,
        1.0,
        2.220446049250313e-16,
        0.0,
        3.516674041748047e-06,
        9.381776628458033e-18,
        -0.042251765727996826,
        1.0
      ],
      "name": "Sketchfab_model"
    },
    {
      "children": [
        2,
        3,
        4,
        5,
        6,
        7,
        8,
        9,
        10,
        11,
        12,
        13,
        14,
        15,
        16,
        17,
        18,
        19,
        20,
        21,
        22,
        23,
        24,
        25,
        26,
        27,
        28,
        29,
        30,
        31,
        32,
        33,
        34,
        35,
        36,
        37,
        38
      ],
      "name": "model.obj.cleaner.materialmerger.gles"
    },
    {
      "mesh": 0,
      "name": "Object_2"
    },
    {
      "mesh": 1,
      "name": "Object_3"
    },
    {
      "mesh": 2,
      "name": "Object_4"
    },
    {
      "mesh": 3,
      "name": "Object_5"
    },
    {
      "mesh": 4,
      "name": "Object_6"
    },
    {
      "mesh": 5,
      "name": "Object_7"
    },
    {
      "mesh": 6,
      "name": "Object_8"
    },
    {
      "mesh": 7,
      "name": "Object_9"
    },
    {
      "mesh": 8,
      "name": "Object_10"
    },
    {
      "mesh": 9,
      "name": "Object_11"
    },
    {
      "mesh": 10,
      "name": "Object_12"
    },
    {
      "mesh": 11,
      "name": "Object_13"
    },
    {
      "mesh": 12,
      "name": "Object_14"
    },
    {
      "mesh": 13,
      "name": "Object_15"
    },
    {
      "mesh": 14,
      "name": "Object_16"
    },
    {
      "mesh": 15,
      "name": "Object_17"
    },
    {
      "mesh": 16,
      "name": "Object_18"
    },
    {
      "mesh": 17,
      "name": "Object_19"
    },
    {
      "mesh": 18,
      "name": "Object_20"
    },
    {
      "mesh": 19,
      "name": "Object_21"
    },
    {
      "mesh": 20,
      "name": "Object_22"
    },
    {
      "mesh": 21,
      "name": "Object_23"
    },
    {
      "mesh": 22,
      "name": "Object_24"
    },
    {
      "mesh": 23,
      "name": "Object_25"
    },
    {
      "mesh": 24,
      "name": "Object_26"
    },
    {
      "mesh": 25,
      "name": "Object_27"
    },
    {
      "mesh": 26,
      "name": "Object_28"
    },
    {
      "mesh": 27,
      "name": "Object_29"
    },
    {
      "mesh": 28,
      "name": "Object_30"
    },
    {
      "mesh": 29,
      "name": "Object_31"
    },
    {
      "mesh": 30,
      "name": "Object_32"
    },
    {
      "mesh": 31,
      "name": "Object_33"
    },
    {
      "mesh": 32,
      "name": "Object_34"
    },
    {
      "mesh": 33,
      "name": "Object_35"
    },
    {
      "mesh": 34,
      "name": "Object_36"
    },
    {
      "mesh": 35,
      "name": "Object_37"
    },
    {
      "mesh": 36,
      "name": "Object_38"
    }
  ],
  "samplers": [
    {
      "magFilter": 9729,
      "minFilter": 9987,
      "wrapS": 10497,
      "wrapT": 10497
    }
  ],
  "scene": 0,
  "scenes": [
    {
      "name": "Sketchfab_Scene",
      "nodes": [
        0
      ]
    }
  ],
  "textures": [
    {
      "sampler": 0,
      "source": 0
    },
    {
      "sampler": 0,
      "source": 1
    },
    {
      "sampler": 0,
      "source": 2
    }
  ]
}
